800.ufo
<glyph name="quotedbl" format="1">
  <advance width="744.800"/>
  <unicode hex="0022"/>
  <outline>
    <contour>
      <point x="148" y="911" type="line"/>
      <point x="302" y="911" type="line"/>
      <point x="330" y="1427" type="line"/>
      <point x="114" y="1427" type="line"/>
    </contour>
    <contour>
      <point x="492" y="911" type="line"/>
      <point x="646" y="911" type="line"/>
      <point x="675" y="1427" type="line"/>
      <point x="458" y="1427" type="line"/>
    </contour>
  </outline>
</glyph>
<glyph name="percent" format="1">
  <advance width="1745.300"/>
  <unicode hex="0025"/>
  <outline>
    <contour>
      <point x="1233" y="1423" type="line"/>
      <point x="407" y="0" type="line"/>
      <point x="582" y="0" type="line"/>
      <point x="1399" y="1423" type="line"/>
    </contour>
    <contour>
      <point x="60" y="1068" type="curve" smooth="yes"/>
      <point x="60" y="860"/>
      <point x="180" y="699"/>
      <point x="408" y="699" type="curve" smooth="yes"/>
      <point x="635" y="699"/>
      <point x="759" y="860"/>
      <point x="759" y="1068" type="curve" smooth="yes"/>
      <point x="759" y="1279"/>
      <point x="638" y="1436"/>
      <point x="408" y="1436" type="curve" smooth="yes"/>
      <point x="183" y="1436"/>
      <point x="60" y="1276"/>
    </contour>
    <contour>
      <point x="602" y="1070" type="curve" smooth="yes"/>
      <point x="602" y="934"/>
      <point x="543" y="827"/>
      <point x="408" y="827" type="curve" smooth="yes"/>
      <point x="272" y="827"/>
      <point x="212" y="931"/>
      <point x="212" y="1070" type="curve" smooth="yes"/>
      <point x="212" y="1204"/>
      <point x="272" y="1310"/>
      <point x="408" y="1310" type="curve" smooth="yes"/>
      <point x="542" y="1310"/>
      <point x="602" y="1210"/>
    </contour>
    <contour>
      <point x="1065" y="355" type="curve" smooth="yes"/>
      <point x="1065" y="147"/>
      <point x="1185" y="-14"/>
      <point x="1413" y="-14" type="curve" smooth="yes"/>
      <point x="1640" y="-14"/>
      <point x="1764" y="147"/>
      <point x="1764" y="355" type="curve" smooth="yes"/>
      <point x="1764" y="566"/>
      <point x="1643" y="723"/>
      <point x="1413" y="723" type="curve" smooth="yes"/>
      <point x="1188" y="723"/>
      <point x="1065" y="563"/>
    </contour>
    <contour>
      <point x="1608" y="357" type="curve" smooth="yes"/>
      <point x="1608" y="221"/>
      <point x="1549" y="114"/>
      <point x="1414" y="114" type="curve" smooth="yes"/>
      <point x="1278" y="114"/>
      <point x="1218" y="218"/>
      <point x="1218" y="357" type="curve" smooth="yes"/>
      <point x="1218" y="491"/>
      <point x="1278" y="597"/>
      <point x="1414" y="597" type="curve" smooth="yes"/>
      <point x="1548" y="597"/>
      <point x="1608" y="497"/>
    </contour>
  </outline>
</glyph>
<glyph name="ampersand" format="1">
  <advance width="1362.400"/>
  <unicode hex="0026"/>
  <outline>
    <contour>
      <point x="434" y="1441"/>
      <point x="245" y="1328"/>
      <point x="245" y="1111" type="curve" smooth="yes"/>
      <point x="245" y="988"/>
      <point x="305" y="871"/>
      <point x="381" y="784" type="curve"/>
      <point x="221" y="696"/>
      <point x="107" y="597"/>
      <point x="107" y="390" type="curve" smooth="yes"/>
      <point x="107" y="105"/>
      <point x="338" y="-17"/>
      <point x="603" y="-17" type="curve" smooth="yes"/>
      <point x="763" y="-17"/>
      <point x="863" y="18"/>
      <point x="985" y="108" type="curve"/>
      <point x="1119" y="-15" type="line"/>
      <point x="1340" y="69" type="line"/>
      <point x="1154" y="259" type="line"/>
      <point x="1217" y="328"/>
      <point x="1280" y="425"/>
      <point x="1321" y="508" type="curve"/>
      <point x="1153" y="617" type="line"/>
      <point x="1117" y="548"/>
      <point x="1062" y="461"/>
      <point x="1014" y="405" type="curve"/>
      <point x="702" y="749" type="line"/>
      <point x="854" y="834"/>
      <point x="1009" y="967"/>
      <point x="1009" y="1143" type="curve" smooth="yes"/>
      <point x="1009" y="1357"/>
      <point x="808" y="1441"/>
      <point x="628" y="1441" type="curve" smooth="yes"/>
    </contour>
    <contour>
      <point x="851" y="252" type="line"/>
      <point x="793" y="204"/>
      <point x="705" y="175"/>
      <point x="610" y="175" type="curve" smooth="yes"/>
      <point x="471" y="175"/>
      <point x="348" y="240"/>
      <point x="348" y="400" type="curve" smooth="yes"/>
      <point x="348" y="510"/>
      <point x="409" y="588"/>
      <point x="500" y="640" type="curve"/>
    </contour>
    <contour>
      <point x="723" y="1271"/>
      <point x="783" y="1228"/>
      <point x="783" y="1136" type="curve" smooth="yes"/>
      <point x="783" y="1029"/>
      <point x="685" y="938"/>
      <point x="587" y="886" type="curve"/>
      <point x="519" y="956"/>
      <point x="477" y="1047"/>
      <point x="477" y="1130" type="curve" smooth="yes"/>
      <point x="477" y="1227"/>
      <point x="543" y="1271"/>
      <point x="635" y="1271" type="curve" smooth="yes"/>
    </contour>
  </outline>
</glyph>
<glyph name="quotesingle" format="1">
  <advance width="489.400"/>
  <unicode hex="0027"/>
  <outline>
    <contour>
      <point x="183" y="886" type="line"/>
      <point x="335" y="886" type="line"/>
      <point x="360" y="1412" type="line"/>
      <point x="152" y="1412" type="line"/>
    </contour>
  </outline>
</glyph>
<glyph name="parenleft" format="1">
  <advance width="718.400"/>
  <unicode hex="0028"/>
  <outline>
    <contour>
      <point x="448" y="-159" type="curve"/>
      <point x="679" y="-159" type="line"/>
      <point x="528" y="93"/>
      <point x="419" y="360"/>
      <point x="419" y="672" type="curve" smooth="yes"/>
      <point x="419" y="1000"/>
      <point x="561" y="1330"/>
      <point x="680" y="1505" type="curve"/>
      <point x="447" y="1505" type="line"/>
      <point x="296" y="1301"/>
      <point x="179" y="1003"/>
      <point x="179" y="670" type="curve" smooth="yes"/>
      <point x="179" y="335"/>
      <point x="286" y="69"/>
    </contour>
  </outline>
</glyph>
<glyph name="parenright" format="1">
  <advance width="728.300"/>
  <unicode hex="0029"/>
  <outline>
    <contour>
      <point x="95" y="-159" type="curve"/>
      <point x="328" y="-159" type="line"/>
      <point x="478" y="42"/>
      <point x="596" y="349"/>
      <point x="596" y="686" type="curve" smooth="yes"/>
      <point x="596" y="1017"/>
      <point x="489" y="1275"/>
      <point x="327" y="1505" type="curve"/>
      <point x="96" y="1505" type="line"/>
      <point x="247" y="1251"/>
      <point x="356" y="993"/>
      <point x="356" y="684" type="curve" smooth="yes"/>
      <point x="356" y="353"/>
      <point x="213" y="15"/>
    </contour>
  </outline>
</glyph>
<glyph name="plus" format="1">
  <advance width="1195"/>
  <unicode hex="002B"/>
  <outline>
    <contour>
      <point x="511" y="1131" type="line"/>
      <point x="511" y="691" type="line"/>
      <point x="91" y="691" type="line"/>
      <point x="91" y="517" type="line"/>
      <point x="510" y="517" type="line"/>
      <point x="510" y="74" type="line"/>
      <point x="684" y="74" type="line"/>
      <point x="684" y="517" type="line"/>
      <point x="1102" y="517" type="line"/>
      <point x="1102" y="691" type="line"/>
      <point x="686" y="691" type="line"/>
      <point x="686" y="1131" type="line"/>
    </contour>
  </outline>
</glyph>
<glyph name="comma" format="1">
  <advance width="521.300"/>
  <unicode hex="002C"/>
  <outline>
    <contour>
      <point x="116" y="-249" type="curve"/>
      <point x="289" y="-249" type="line"/>
      <point x="289" y="-249"/>
      <point x="433" y="193"/>
      <point x="433" y="197" type="curve"/>
      <point x="439" y="252" type="line"/>
      <point x="202" y="252" type="line"/>
      <point x="202" y="241"/>
      <point x="116" y="-249"/>
    </contour>
  </outline>
</glyph>
<glyph name="hyphen" format="1">
  <advance width="612.700"/>
  <unicode hex="002D"/>
  <outline>
    <contour>
      <point x="48" y="435" type="line"/>
      <point x="562" y="435" type="line"/>
      <point x="562" y="624" type="line"/>
      <point x="48" y="624" type="line"/>
    </contour>
  </outline>
</glyph>
<glyph name="period" format="1">
  <advance width="540.400"/>
  <unicode hex="002E"/>
  <outline>
    <contour>
      <point x="289" y="1" type="curve" smooth="yes"/>
      <point x="375" y="1"/>
      <point x="436" y="69"/>
      <point x="436" y="147" type="curve" smooth="yes"/>
      <point x="436" y="226"/>
      <point x="375" y="295"/>
      <point x="289" y="295" type="curve" smooth="yes"/>
      <point x="203" y="295"/>
      <point x="141" y="226"/>
      <point x="141" y="147" type="curve" smooth="yes"/>
      <point x="141" y="68"/>
      <point x="204" y="1"/>
    </contour>
  </outline>
</glyph>
<glyph name="slash" format="1">
  <advance width="892.700"/>
  <unicode hex="002F"/>
  <outline>
    <contour>
      <point x="65" y="-139" type="line"/>
      <point x="271" y="-139" type="line"/>
      <point x="868" y="1419" type="line"/>
      <point x="658" y="1419" type="line"/>
    </contour>
  </outline>
</glyph>
<glyph name="zero" format="1">
  <advance width="1256"/>
  <unicode hex="0030"/>
  <outline>
    <contour>
      <point x="828" y="557.573"/>
      <point x="776.376" y="257"/>
      <point x="628" y="257" type="curve"/>
      <point x="478.675" y="257"/>
      <point x="428" y="560.646"/>
      <point x="428" y="807" type="curve"/>
      <point x="430.963" y="1050.14"/>
      <point x="478.273" y="1276"/>
      <point x="628" y="1276" type="curve"/>
      <point x="778.723" y="1276"/>
      <point x="828" y="1038.95"/>
      <point x="828" y="801" type="curve"/>
    </contour>
    <contour>
      <point x="9" y="415.386"/>
      <point x="173.298" y="-26"/>
      <point x="628" y="-26" type="curve"/>
      <point x="1081.67" y="-26"/>
      <point x="1247" y="415.411"/>
      <point x="1247" y="793" type="curve"/>
      <point x="1247" y="1173.99"/>
      <point x="1079.76" y="1560"/>
      <point x="628" y="1560" type="curve"/>
      <point x="180.534" y="1560"/>
      <point x="9" y="1179.81"/>
      <point x="9" y="793" type="curve"/>
    </contour>
  </outline>
</glyph>
<glyph name="one" format="1">
  <advance width="1207"/>
  <unicode hex="0031"/>
  <outline>
    <contour>
      <point x="235" y="0" type="line"/>
      <point x="1093" y="0" type="line"/>
      <point x="1093" y="198" type="line"/>
      <point x="715" y="198" type="line"/>
      <point x="808" y="105" type="line"/>
      <point x="808" y="1423" type="line"/>
      <point x="587" y="1423" type="line"/>
      <point x="506" y="1365"/>
      <point x="366" y="1314"/>
      <point x="249" y="1283" type="curve"/>
      <point x="249" y="1083" type="line"/>
      <point x="388" y="1104"/>
      <point x="538" y="1161"/>
      <point x="600" y="1218" type="curve"/>
      <point x="554" y="1252" type="line"/>
      <point x="554" y="105" type="line"/>
      <point x="646" y="198" type="line"/>
      <point x="235" y="198" type="line"/>
    </contour>
  </outline>
</glyph>
<glyph name="two" format="1">
  <advance width="1207"/>
  <unicode hex="0032"/>
  <outline>
    <contour>
      <point x="272" y="1123" type="line"/>
      <point x="342" y="1170"/>
      <point x="464" y="1214"/>
      <point x="570" y="1214" type="curve" smooth="yes"/>
      <point x="678" y="1214"/>
      <point x="780" y="1168"/>
      <point x="780" y="1023" type="curve" smooth="yes"/>
      <point x="780" y="923"/>
      <point x="714" y="808"/>
      <point x="624" y="709" type="curve" smooth="yes"/>
      <point x="176" y="205" type="line"/>
      <point x="185" y="0" type="line"/>
      <point x="1013" y="0" type="line"/>
      <point x="1030" y="198" type="line"/>
      <point x="356" y="198" type="line"/>
      <point x="398" y="116" type="line"/>
      <point x="776" y="527" type="line"/>
      <point x="953" y="718"/>
      <point x="1036" y="863"/>
      <point x="1036" y="1035" type="curve" smooth="yes"/>
      <point x="1036" y="1335"/>
      <point x="817" y="1440"/>
      <point x="601" y="1440" type="curve" smooth="yes"/>
      <point x="446" y="1440"/>
      <point x="286" y="1388"/>
      <point x="186" y="1313" type="curve"/>
      <point x="258" y="1123" type="line"/>
    </contour>
  </outline>
</glyph>
<glyph name="three" format="1">
  <advance width="1223"/>
  <unicode hex="0033"/>
  <outline>
    <contour>
      <point x="578" y="-22" type="curve"/>
      <point x="850" y="-22"/>
      <point x="1182" y="85"/>
      <point x="1181" y="442" type="curve"/>
      <point x="1180" y="619"/>
      <point x="1091" y="765"/>
      <point x="647" y="826" type="curve"/>
      <point x="591" y="752" type="line"/>
      <point x="1036" y="777"/>
      <point x="1136" y="973"/>
      <point x="1136" y="1164" type="curve"/>
      <point x="1130" y="1430"/>
      <point x="842" y="1560"/>
      <point x="568" y="1560" type="curve"/>
      <point x="207" y="1560"/>
      <point x="79" y="1353"/>
      <point x="64" y="1260" type="curve"/>
      <point x="302" y="1131" type="line"/>
      <point x="374" y="1131" type="line"/>
      <point x="417" y="1233"/>
      <point x="471" y="1272"/>
      <point x="549" y="1276" type="curve"/>
      <point x="675" y="1276"/>
      <point x="739" y="1238"/>
      <point x="745" y="1130" type="curve"/>
      <point x="745" y="965"/>
      <point x="634" y="914"/>
      <point x="395" y="885" type="curve"/>
      <point x="395" y="885"/>
      <point x="279" y="873"/>
      <point x="279" y="873" type="curve"/>
      <point x="301" y="654" type="line"/>
      <point x="399" y="654" type="line"/>
      <point x="609" y="654"/>
      <point x="764" y="631"/>
      <point x="763" y="450" type="curve"/>
      <point x="762" y="329"/>
      <point x="695" y="257"/>
      <point x="552" y="257" type="curve"/>
      <point x="401" y="257"/>
      <point x="349" y="346"/>
      <point x="279" y="408" type="curve"/>
      <point x="198" y="408" type="line"/>
      <point x="28" y="193" type="line"/>
      <point x="50" y="152"/>
      <point x="202" y="-22"/>
    </contour>
  </outline>
</glyph>
<glyph name="four" format="1">
  <advance width="1390"/>
  <unicode hex="0034"/>
  <outline>
    <contour>
      <point x="687" y="0" type="line"/>
      <point x="1086" y="0" type="line"/>
      <point x="1086" y="320" type="line"/>
      <point x="1299" y="320" type="line"/>
      <point x="1315" y="567" type="line"/>
      <point x="1086" y="567" type="line"/>
      <point x="1086" y="1456" type="line"/>
      <point x="619" y="1456" type="line"/>
      <point x="65" y="545" type="line"/>
      <point x="81" y="320" type="line"/>
      <point x="687" y="320" type="line"/>
    </contour>
    <contour>
      <point x="351" y="561" type="line"/>
      <point x="686" y="1101" type="line"/>
      <point x="686" y="561" type="line"/>
    </contour>
  </outline>
</glyph>
<glyph name="five" format="1">
  <advance width="1207"/>
  <unicode hex="0035"/>
  <outline>
    <contour>
      <point x="586" y="-19" type="curve" smooth="yes"/>
      <point x="908" y="-19"/>
      <point x="1099" y="170"/>
      <point x="1099" y="450" type="curve" smooth="yes"/>
      <point x="1099" y="711"/>
      <point x="929" y="898"/>
      <point x="686" y="898" type="curve" smooth="yes"/>
      <point x="560" y="898"/>
      <point x="484" y="855"/>
      <point x="458" y="836" type="curve"/>
      <point x="484" y="1217" type="line"/>
      <point x="1028" y="1217" type="line"/>
      <point x="1045" y="1423" type="line"/>
      <point x="250" y="1423" type="line"/>
      <point x="211" y="628" type="line"/>
      <point x="395" y="599" type="line"/>
      <point x="458" y="666"/>
      <point x="537" y="699"/>
      <point x="611" y="699" type="curve" smooth="yes"/>
      <point x="748" y="699"/>
      <point x="837" y="602"/>
      <point x="837" y="453" type="curve" smooth="yes"/>
      <point x="837" y="297"/>
      <point x="746" y="186"/>
      <point x="559" y="186" type="curve" smooth="yes"/>
      <point x="405" y="186"/>
      <point x="265" y="277"/>
      <point x="240" y="294" type="curve"/>
      <point x="152" y="114" type="line"/>
      <point x="185" y="88"/>
      <point x="377" y="-19"/>
    </contour>
  </outline>
</glyph>
<glyph name="six" format="1">
  <advance width="1390"/>
  <unicode hex="0036"/>
  <outline>
    <contour>
      <point x="689" y="0" type="curve" smooth="yes"/>
      <point x="1054" y="0"/>
      <point x="1272" y="189"/>
      <point x="1272" y="468" type="curve" smooth="yes"/>
      <point x="1272" y="791"/>
      <point x="1025" y="919"/>
      <point x="816" y="919" type="curve" smooth="yes"/>
      <point x="696" y="919"/>
      <point x="586" y="859"/>
      <point x="559" y="833" type="curve"/>
      <point x="583" y="804" type="line"/>
      <point x="791" y="1047" type="line"/>
      <point x="1090" y="1444" type="line"/>
      <point x="1090" y="1476" type="line"/>
      <point x="669" y="1476" type="line"/>
      <point x="260" y="903" type="line" smooth="yes"/>
      <point x="168" y="775"/>
      <point x="107" y="659"/>
      <point x="107" y="489" type="curve" smooth="yes"/>
      <point x="107" y="201"/>
      <point x="321" y="0"/>
    </contour>
    <contour>
      <point x="690" y="259" type="curve" smooth="yes"/>
      <point x="575" y="259"/>
      <point x="502" y="344"/>
      <point x="502" y="480" type="curve" smooth="yes"/>
      <point x="502" y="624"/>
      <point x="575" y="714"/>
      <point x="690" y="714" type="curve" smooth="yes"/>
      <point x="805" y="714"/>
      <point x="878" y="624"/>
      <point x="878" y="480" type="curve" smooth="yes"/>
      <point x="878" y="344"/>
      <point x="805" y="259"/>
    </contour>
  </outline>
</glyph>
<glyph name="seven" format="1">
  <advance width="1254"/>
  <unicode hex="0037"/>
  <outline>
    <contour>
      <point x="242.22" y="-6" type="line"/>
      <point x="656.101" y="-6" type="line"/>
      <point x="1255.14" y="1252.59" type="line"/>
      <point x="1227.96" y="1462" type="line"/>
      <point x="178.83" y="1462" type="line"/>
      <point x="187.201" y="1191" type="line"/>
      <point x="820.22" y="1191" type="line"/>
    </contour>
  </outline>
</glyph>
<glyph name="eight" format="1">
  <advance width="1255"/>
  <unicode hex="0038"/>
  <outline>
    <contour>
      <point x="68" y="130.502"/>
      <point x="334.335" y="-22"/>
      <point x="632" y="-22" type="curve"/>
      <point x="928.116" y="-22"/>
      <point x="1187" y="130.627"/>
      <point x="1187" y="391" type="curve"/>
      <point x="1187" y="556.967"/>
      <point x="1104.02" y="692.771"/>
      <point x="962.051" y="777.837" type="curve"/>
      <point x="1088.9" y="858.545"/>
      <point x="1163" y="956.121"/>
      <point x="1163" y="1100" type="curve"/>
      <point x="1163" y="1348.5"/>
      <point x="915.665" y="1490"/>
      <point x="629" y="1490" type="curve"/>
      <point x="344.539" y="1490"/>
      <point x="94" y="1348.56"/>
      <point x="94" y="1100" type="curve"/>
      <point x="94" y="949.836"/>
      <point x="175.691" y="854.487"/>
      <point x="309.484" y="777.904" type="curve"/>
      <point x="159.959" y="695.059"/>
      <point x="68" y="551.774"/>
      <point x="68" y="391" type="curve"/>
    </contour>
    <contour>
      <point x="787" y="251.078"/>
      <point x="743.824" y="190"/>
      <point x="632" y="190" type="curve"/>
      <point x="520.593" y="190"/>
      <point x="472" y="250.727"/>
      <point x="472" y="381" type="curve"/>
      <point x="472" y="517.744"/>
      <point x="535.569" y="627.017"/>
      <point x="631.902" y="661.359" type="curve"/>
      <point x="726.778" y="627.106"/>
      <point x="787" y="517.534"/>
      <point x="787" y="382" type="curve"/>
    </contour>
    <contour>
      <point x="789" y="973.548"/>
      <point x="730.605" y="872.991"/>
      <point x="631.983" y="847.027" type="curve"/>
      <point x="532.248" y="873.096"/>
      <point x="468" y="973.149"/>
      <point x="468" y="1101" type="curve"/>
      <point x="468" y="1208.45"/>
      <point x="533.484" y="1260"/>
      <point x="632" y="1260" type="curve"/>
      <point x="729.868" y="1260"/>
      <point x="789" y="1208.59"/>
      <point x="789" y="1101" type="curve"/>
    </contour>
  </outline>
</glyph>
<glyph name="nine" format="1">
  <advance width="1207"/>
  <unicode hex="0039"/>
  <outline>
    <contour>
      <point x="239" y="0" type="line"/>
      <point x="549" y="0" type="line"/>
      <point x="549" y="0"/>
      <point x="923" y="502"/>
      <point x="942" y="528" type="curve" smooth="yes"/>
      <point x="1041" y="664"/>
      <point x="1129" y="794"/>
      <point x="1129" y="980" type="curve" smooth="yes"/>
      <point x="1129" y="1255"/>
      <point x="918" y="1441"/>
      <point x="616" y="1441" type="curve" smooth="yes"/>
      <point x="323" y="1441"/>
      <point x="107" y="1258"/>
      <point x="107" y="983" type="curve" smooth="yes"/>
      <point x="107" y="717"/>
      <point x="310" y="541"/>
      <point x="573" y="541" type="curve" smooth="yes"/>
      <point x="667" y="541"/>
      <point x="786" y="610"/>
      <point x="805" y="623" type="curve"/>
      <point x="755" y="669" type="line"/>
      <point x="755" y="669"/>
      <point x="616" y="489"/>
      <point x="603" y="471" type="curve"/>
    </contour>
    <contour>
      <point x="622" y="731" type="curve" smooth="yes"/>
      <point x="450" y="731"/>
      <point x="367" y="831"/>
      <point x="367" y="988" type="curve" smooth="yes"/>
      <point x="367" y="1139"/>
      <point x="461" y="1242"/>
      <point x="627" y="1242" type="curve" smooth="yes"/>
      <point x="789" y="1242"/>
      <point x="873" y="1142"/>
      <point x="873" y="992" type="curve" smooth="yes"/>
      <point x="873" y="828"/>
      <point x="788" y="731"/>
    </contour>
  </outline>
</glyph>
<glyph name="colon" format="1">
  <advance width="623.500"/>
  <unicode hex="003A"/>
  <outline>
    <contour>
      <point x="198" y="0" type="line"/>
      <point x="454" y="0" type="line"/>
      <point x="454" y="268" type="line"/>
      <point x="198" y="268" type="line"/>
    </contour>
    <contour>
      <point x="198" y="807" type="line"/>
      <point x="454" y="807" type="line"/>
      <point x="454" y="1066" type="line"/>
      <point x="198" y="1066" type="line"/>
    </contour>
  </outline>
</glyph>
<glyph name="semicolon" format="1">
  <advance width="620.400"/>
  <unicode hex="003B"/>
  <outline>
    <contour>
      <point x="194" y="-301" type="line"/>
      <point x="349" y="-301" type="line"/>
      <point x="471" y="248" type="line"/>
      <point x="246" y="248" type="line"/>
    </contour>
    <contour>
      <point x="212" y="807" type="line"/>
      <point x="468" y="807" type="line"/>
      <point x="468" y="1066" type="line"/>
      <point x="212" y="1066" type="line"/>
    </contour>
  </outline>
</glyph>
<glyph name="less" format="1">
  <advance width="1107"/>
  <unicode hex="003C"/>
  <outline>
    <contour>
      <point x="1002" y="192" type="line"/>
      <point x="1002" y="192"/>
      <point x="1002" y="444"/>
      <point x="1000" y="446" type="curve"/>
      <point x="345" y="737" type="line"/>
      <point x="1004" y="1057" type="line"/>
      <point x="1004" y="1299" type="line"/>
      <point x="53" y="802" type="line"/>
      <point x="53" y="658" type="line"/>
    </contour>
  </outline>
</glyph>
<glyph name="equal" format="1">
  <advance width="1289"/>
  <unicode hex="003D"/>
  <outline>
    <contour>
      <point x="91" y="1159" type="line"/>
      <point x="91" y="933" type="line"/>
      <point x="1169" y="933" type="line"/>
      <point x="1169" y="1159" type="line"/>
    </contour>
    <contour>
      <point x="91" y="758" type="line"/>
      <point x="91" y="531" type="line"/>
      <point x="1169" y="531" type="line"/>
      <point x="1169" y="758" type="line"/>
    </contour>
  </outline>
</glyph>
<glyph name="greater" format="1">
  <advance width="1116.600"/>
  <unicode hex="003E"/>
  <outline>
    <contour>
      <point x="143" y="1002" type="line"/>
      <point x="795" y="679" type="line"/>
      <point x="143" y="388" type="line"/>
      <point x="143" y="174" type="line"/>
      <point x="1061" y="612" type="line"/>
      <point x="1061" y="733" type="line"/>
      <point x="143" y="1207" type="line"/>
    </contour>
  </outline>
</glyph>
<glyph name="question" format="1">
  <advance width="963.400"/>
  <unicode hex="003F"/>
  <outline>
    <contour>
      <point x="403" y="440" type="curve"/>
      <point x="515" y="440" type="line"/>
      <point x="651" y="729"/>
      <point x="868" y="875"/>
      <point x="868" y="1112" type="curve" smooth="yes"/>
      <point x="868" y="1334"/>
      <point x="674" y="1438"/>
      <point x="503" y="1438" type="curve" smooth="yes"/>
      <point x="353" y="1438"/>
      <point x="247" y="1400"/>
      <point x="155" y="1338" type="curve"/>
      <point x="225" y="1173" type="line"/>
      <point x="279" y="1206"/>
      <point x="359" y="1252"/>
      <point x="479" y="1252" type="curve" smooth="yes"/>
      <point x="594" y="1252"/>
      <point x="661" y="1188"/>
      <point x="662" y="1082" type="curve"/>
      <point x="662" y="907"/>
      <point x="434" y="708"/>
    </contour>
    <contour>
      <point x="458" y="-8" type="curve" smooth="yes"/>
      <point x="542" y="-8"/>
      <point x="601" y="61"/>
      <point x="601" y="140" type="curve" smooth="yes"/>
      <point x="601" y="219"/>
      <point x="542" y="288"/>
      <point x="458" y="288" type="curve" smooth="yes"/>
      <point x="373" y="288"/>
      <point x="310" y="219"/>
      <point x="310" y="140" type="curve" smooth="yes"/>
      <point x="310" y="61"/>
      <point x="374" y="-8"/>
    </contour>
  </outline>
</glyph>
<glyph name="at" format="1">
  <advance width="1776.900"/>
  <unicode hex="0040"/>
  <outline>
    <contour>
      <point x="459" y="1444"/>
      <point x="106" y="1100"/>
      <point x="106" y="634" type="curve" smooth="yes"/>
      <point x="106" y="167"/>
      <point x="423" y="-124"/>
      <point x="871" y="-124" type="curve" smooth="yes"/>
      <point x="1054" y="-124"/>
      <point x="1245" y="-83"/>
      <point x="1367" y="-1" type="curve"/>
      <point x="1324" y="122" type="line"/>
      <point x="1197" y="50"/>
      <point x="1029" y="12"/>
      <point x="873" y="12" type="curve" smooth="yes"/>
      <point x="477" y="12"/>
      <point x="276" y="305"/>
      <point x="276" y="629" type="curve" smooth="yes"/>
      <point x="276" y="971"/>
      <point x="505" y="1309"/>
      <point x="927" y="1309" type="curve" smooth="yes"/>
      <point x="1353" y="1309"/>
      <point x="1520" y="1033"/>
      <point x="1520" y="768" type="curve" smooth="yes"/>
      <point x="1520" y="501"/>
      <point x="1405" y="388"/>
      <point x="1307" y="388" type="curve" smooth="yes"/>
      <point x="1243" y="388"/>
      <point x="1194" y="437"/>
      <point x="1194" y="509" type="curve" smooth="yes"/>
      <point x="1194" y="627"/>
      <point x="1230" y="801"/>
      <point x="1256" y="993" type="curve"/>
      <point x="1174" y="1038"/>
      <point x="1031" y="1065"/>
      <point x="939" y="1065" type="curve" smooth="yes"/>
      <point x="665" y="1065"/>
      <point x="512" y="817"/>
      <point x="512" y="591" type="curve" smooth="yes"/>
      <point x="512" y="413"/>
      <point x="607" y="262"/>
      <point x="809" y="262" type="curve" smooth="yes"/>
      <point x="983" y="262"/>
      <point x="1076" y="428"/>
      <point x="1104" y="531" type="curve"/>
      <point x="1066" y="531" type="line"/>
      <point x="1079" y="382"/>
      <point x="1158" y="262"/>
      <point x="1307" y="262" type="curve" smooth="yes"/>
      <point x="1471" y="262"/>
      <point x="1671" y="428"/>
      <point x="1671" y="760" type="curve" smooth="yes"/>
      <point x="1671" y="1178"/>
      <point x="1347" y="1444"/>
      <point x="935" y="1444" type="curve" smooth="yes"/>
    </contour>
    <contour>
      <point x="1093" y="990"/>
      <point x="1045" y="714"/>
      <point x="1044" y="708" type="curve" smooth="yes"/>
      <point x="1012" y="521"/>
      <point x="971" y="381"/>
      <point x="826" y="381" type="curve" smooth="yes"/>
      <point x="724" y="381"/>
      <point x="676" y="470"/>
      <point x="676" y="587" type="curve" smooth="yes"/>
      <point x="676" y="773"/>
      <point x="784" y="952"/>
      <point x="961" y="952" type="curve" smooth="yes"/>
      <point x="1015" y="952"/>
      <point x="1099" y="935"/>
      <point x="1136" y="921" type="curve"/>
      <point x="1094" y="996" type="line"/>
    </contour>
  </outline>
</glyph>
<glyph name="A" format="1">
  <advance width="1457.700"/>
  <unicode hex="0041"/>
  <outline>
    <contour>
      <point x="557" y="1456" type="line"/>
      <point x="49" y="0" type="line"/>
      <point x="344" y="0" type="line"/>
      <point x="506" y="474" type="line"/>
      <point x="413" y="405" type="line"/>
      <point x="1046" y="405" type="line"/>
      <point x="949" y="469" type="line"/>
      <point x="1117" y="0" type="line"/>
      <point x="1409" y="0" type="line"/>
      <point x="903" y="1456" type="line"/>
    </contour>
    <contour>
      <point x="710" y="1284" type="line"/>
      <point x="939" y="514" type="line"/>
      <point x="989" y="594" type="line"/>
      <point x="467" y="594" type="line"/>
      <point x="516" y="513" type="line"/>
      <point x="756" y="1284" type="line"/>
    </contour>
    <contour>
      <point x="729" y="0" type="move" name="bot"/>
    </contour>
    <contour>
      <point x="1274" y="0" type="move" name="ogonek"/>
    </contour>
    <contour>
      <point x="729" y="1456" type="move" name="top"/>
    </contour>
  </outline>
</glyph>
<glyph name="B" format="1">
  <advance width="1381.600"/>
  <unicode hex="0042"/>
  <outline>
    <contour>
      <point x="557" y="-16" type="curve" smooth="yes"/>
      <point x="1141" y="-16"/>
      <point x="1278" y="143"/>
      <point x="1278" y="449" type="curve" smooth="yes"/>
      <point x="1278" y="668"/>
      <point x="1127" y="777"/>
      <point x="948" y="823" type="curve"/>
      <point x="948" y="761" type="line"/>
      <point x="1133" y="829"/>
      <point x="1227" y="939"/>
      <point x="1227" y="1099" type="curve" smooth="yes"/>
      <point x="1227" y="1369"/>
      <point x="1076" y="1466"/>
      <point x="534" y="1466" type="curve" smooth="yes"/>
      <point x="432" y="1466"/>
      <point x="316" y="1462"/>
      <point x="185" y="1456" type="curve"/>
      <point x="185" y="0" type="line"/>
      <point x="325" y="-11"/>
      <point x="449" y="-16"/>
    </contour>
    <contour>
      <point x="469" y="150" type="line"/>
      <point x="469" y="760" type="line"/>
      <point x="408" y="687" type="line"/>
      <point x="693" y="687" type="line" smooth="yes"/>
      <point x="899" y="687"/>
      <point x="994" y="625"/>
      <point x="994" y="467" type="curve" smooth="yes"/>
      <point x="994" y="296"/>
      <point x="931" y="200"/>
      <point x="637" y="200" type="curve" smooth="yes"/>
      <point x="572" y="200"/>
      <point x="497" y="204"/>
      <point x="408" y="214" type="curve"/>
    </contour>
    <contour>
      <point x="470" y="818" type="line"/>
      <point x="470" y="1310" type="line"/>
      <point x="408" y="1248" type="line"/>
      <point x="491" y="1254"/>
      <point x="563" y="1257"/>
      <point x="624" y="1257" type="curve" smooth="yes"/>
      <point x="875" y="1257"/>
      <point x="951" y="1202"/>
      <point x="951" y="1060" type="curve" smooth="yes"/>
      <point x="951" y="922"/>
      <point x="867" y="874"/>
      <point x="703" y="874" type="curve" smooth="yes"/>
      <point x="408" y="874" type="line"/>
    </contour>
    <contour>
      <point x="691" y="1423" type="move" name="top"/>
    </contour>
  </outline>
</glyph>
<glyph name="C" format="1">
  <advance width="1310.800"/>
  <unicode hex="0043"/>
  <outline>
    <contour>
      <point x="387" y="1476"/>
      <point x="126" y="1196"/>
      <point x="126" y="715" type="curve"/>
      <point x="126" y="260"/>
      <point x="387" y="-20"/>
      <point x="813" y="-20" type="curve"/>
      <point x="1085" y="-20"/>
      <point x="1297" y="125"/>
      <point x="1353" y="357" type="curve" smooth="yes"/>
      <point x="1179" y="428" type="line"/>
      <point x="1146" y="428" type="line"/>
      <point x="1097" y="291"/>
      <point x="967" y="205"/>
      <point x="813" y="205" type="curve"/>
      <point x="562" y="205"/>
      <point x="411" y="398"/>
      <point x="411" y="715" type="curve"/>
      <point x="411" y="1058"/>
      <point x="562" y="1251"/>
      <point x="813" y="1251" type="curve"/>
      <point x="966" y="1251"/>
      <point x="1096" y="1166"/>
      <point x="1145" y="1030" type="curve"/>
      <point x="1184" y="1030" type="line"/>
      <point x="1353" y="1099" type="line" smooth="yes"/>
      <point x="1298" y="1331"/>
      <point x="1086" y="1476"/>
      <point x="813" y="1476" type="curve"/>
    </contour>
    <contour>
      <point x="825" y="0" type="move" name="bot"/>
    </contour>
    <contour>
      <point x="825" y="1423" type="move" name="top"/>
    </contour>
  </outline>
</glyph>
<glyph name="D" format="1">
  <advance width="1542"/>
  <unicode hex="0044"/>
  <outline>
    <contour>
      <point x="168" y="5" type="line"/>
      <point x="1169" y="-93"/>
      <point x="1448" y="241"/>
      <point x="1448" y="759" type="curve"/>
      <point x="1448" y="1362"/>
      <point x="1071" y="1557"/>
      <point x="168" y="1441" type="curve"/>
    </contour>
    <contour>
      <point x="457" y="1173" type="line"/>
      <point x="997" y="1296"/>
      <point x="1061" y="1008"/>
      <point x="1061" y="754" type="curve"/>
      <point x="1061" y="415"/>
      <point x="914" y="228"/>
      <point x="451" y="282" type="curve"/>
      <point x="567" y="181" type="line"/>
      <point x="567" y="1275" type="line"/>
    </contour>
    <contour>
      <point x="817" y="1456" type="move" name="top"/>
    </contour>
    <contour>
      <point x="769" y="1" type="move" name="bot"/>
    </contour>
    <contour>
      <point x="377" y="776" type="move" name="mid"/>
    </contour>
  </outline>
</glyph>
<glyph name="E" format="1">
  <advance width="1366"/>
  <unicode hex="0045"/>
  <outline>
    <contour>
      <point x="168" y="1462" type="line"/>
      <point x="168" y="-6" type="line"/>
      <point x="1250" y="-6" type="line"/>
      <point x="1254" y="265" type="line"/>
      <point x="399" y="265" type="line"/>
      <point x="566" y="122" type="line"/>
      <point x="566" y="797" type="line"/>
      <point x="396" y="613" type="line"/>
      <point x="1198" y="613" type="line"/>
      <point x="1198" y="876" type="line"/>
      <point x="398" y="876" type="line"/>
      <point x="566" y="677" type="line"/>
      <point x="566" y="1380" type="line"/>
      <point x="398" y="1200" type="line"/>
      <point x="1213" y="1200" type="line"/>
      <point x="1234" y="1462" type="line"/>
    </contour>
    <contour>
      <point x="637" y="1456" type="move" name="top"/>
    </contour>
    <contour>
      <point x="986" y="0" type="move" name="ogonek"/>
    </contour>
    <contour>
      <point x="662" y="0" type="move" name="bot"/>
    </contour>
  </outline>
</glyph>
<glyph name="F" format="1">
  <advance width="1280"/>
  <unicode hex="0046"/>
  <outline>
    <contour>
      <point x="168" y="1462" type="line"/>
      <point x="168" y="-6" type="line"/>
      <point x="567" y="-6" type="line"/>
      <point x="567" y="813" type="line"/>
      <point x="388" y="582" type="line"/>
      <point x="1161" y="582" type="line"/>
      <point x="1161" y="845" type="line"/>
      <point x="371" y="845" type="line"/>
      <point x="567" y="681" type="line"/>
      <point x="567" y="1361" type="line"/>
      <point x="363" y="1188" type="line"/>
      <point x="1176" y="1188" type="line"/>
      <point x="1194" y="1462" type="line"/>
    </contour>
    <contour>
      <point x="531" y="1456" type="move" name="top"/>
    </contour>
  </outline>
</glyph>
<glyph name="G" format="1">
  <advance width="1448"/>
  <unicode hex="0047"/>
  <outline>
    <contour>
      <point x="751" y="-20" type="curve" smooth="yes"/>
      <point x="973" y="-20"/>
      <point x="1173" y="30"/>
      <point x="1332" y="105" type="curve"/>
      <point x="1332" y="841" type="line"/>
      <point x="742" y="841" type="line"/>
      <point x="733" y="577" type="line"/>
      <point x="1149" y="554" type="line"/>
      <point x="1041" y="712" type="line"/>
      <point x="1041" y="209" type="line"/>
      <point x="1085" y="320" type="line"/>
      <point x="1020" y="271"/>
      <point x="894" y="249"/>
      <point x="778" y="250" type="curve" smooth="yes"/>
      <point x="558" y="250"/>
      <point x="452" y="397"/>
      <point x="452" y="711" type="curve" smooth="yes"/>
      <point x="452" y="1080"/>
      <point x="578" y="1206"/>
      <point x="793" y="1206" type="curve" smooth="yes"/>
      <point x="972" y="1206"/>
      <point x="1048" y="1108"/>
      <point x="1096" y="995" type="curve"/>
      <point x="1124" y="995" type="line"/>
      <point x="1372" y="1119" type="line"/>
      <point x="1293" y="1331"/>
      <point x="1134" y="1476"/>
      <point x="756" y="1476" type="curve" smooth="yes"/>
      <point x="325" y="1476"/>
      <point x="26" y="1247"/>
      <point x="26" y="711" type="curve" smooth="yes"/>
      <point x="26" y="239"/>
      <point x="285" y="-20"/>
    </contour>
    <contour>
      <point x="772" y="1456" type="move" name="top"/>
    </contour>
    <contour>
      <point x="755" y="-1" type="move" name="bot"/>
    </contour>
  </outline>
</glyph>
<glyph name="H" format="1">
  <advance width="1599"/>
  <unicode hex="0048"/>
  <outline>
    <contour>
      <point x="1032" y="1462" type="line"/>
      <point x="1032" y="676" type="line"/>
      <point x="1217" y="876" type="line"/>
      <point x="393" y="876" type="line"/>
      <point x="567" y="664" type="line"/>
      <point x="567" y="1462" type="line"/>
      <point x="168" y="1462" type="line"/>
      <point x="168" y="-6" type="line"/>
      <point x="567" y="-6" type="line"/>
      <point x="567" y="808" type="line"/>
      <point x="389" y="615" type="line"/>
      <point x="1227" y="615" type="line"/>
      <point x="1032" y="792" type="line"/>
      <point x="1032" y="-6" type="line"/>
      <point x="1431" y="-6" type="line"/>
      <point x="1431" y="1462" type="line"/>
    </contour>
    <contour>
      <point x="811" y="1456" type="move" name="top"/>
    </contour>
  </outline>
</glyph>
<glyph name="I" format="1">
  <advance width="1143"/>
  <unicode hex="0049"/>
  <outline>
    <contour>
      <point x="137" y="1462" type="line"/>
      <point x="137" y="1249" type="line"/>
      <point x="544.213" y="1249" type="line"/>
      <point x="359" y="1360.13" type="line"/>
      <point x="359" y="69.2515" type="line"/>
      <point x="546.801" y="206" type="line"/>
      <point x="137" y="206" type="line"/>
      <point x="137" y="-6" type="line"/>
      <point x="972" y="-6" type="line"/>
      <point x="972" y="206" type="line"/>
      <point x="553.905" y="206" type="line"/>
      <point x="757" y="80.3564" type="line"/>
      <point x="757" y="1358.57" type="line"/>
      <point x="555.245" y="1249" type="line"/>
      <point x="972" y="1249" type="line"/>
      <point x="972" y="1462" type="line"/>
    </contour>
    <contour>
      <point x="577" y="1456" type="move" name="top"/>
    </contour>
    <contour>
      <point x="578" y="0" type="move" name="ogonek"/>
    </contour>
  </outline>
</glyph>
<glyph name="J" format="1">
  <advance width="973"/>
  <unicode hex="004A"/>
  <outline>
    <contour>
      <point x="421" y="1456" type="line"/>
      <point x="421" y="305" type="line" smooth="yes"/>
      <point x="421" y="-74"/>
      <point x="412" y="-135"/>
      <point x="296.553" y="-191.909" type="curve" smooth="yes"/>
      <point x="95" y="-291" type="line"/>
      <point x="235" y="-598" type="line"/>
      <point x="410" y="-520" type="line" smooth="yes"/>
      <point x="861" y="-319"/>
      <point x="819" y="-159.878"/>
      <point x="819" y="295" type="curve" smooth="yes"/>
      <point x="819" y="1456" type="line"/>
    </contour>
    <contour>
      <point x="625" y="1456" type="move" name="top"/>
    </contour>
  </outline>
</glyph>
<glyph name="K" format="1">
  <advance width="1414.700"/>
  <unicode hex="004B"/>
  <outline>
    <contour>
      <point x="1342" y="1456" type="line"/>
      <point x="1028" y="1456" type="line"/>
      <point x="405" y="714" type="line"/>
      <point x="469" y="705" type="line"/>
      <point x="469" y="1456" type="line"/>
      <point x="185" y="1456" type="line"/>
      <point x="185" y="0" type="line"/>
      <point x="469" y="0" type="line"/>
      <point x="469" y="637" type="line"/>
      <point x="416" y="503" type="line"/>
      <point x="657" y="710" type="line"/>
      <point x="552" y="721" type="line"/>
      <point x="1062" y="0" type="line"/>
      <point x="1375" y="0" type="line"/>
      <point x="1375" y="19" type="line"/>
      <point x="750" y="884" type="line"/>
      <point x="750" y="740" type="line"/>
      <point x="1342" y="1440" type="line"/>
    </contour>
    <contour>
      <point x="707" y="0" type="move" name="bot"/>
    </contour>
    <contour>
      <point x="707" y="1456" type="move" name="top"/>
    </contour>
  </outline>
</glyph>
<glyph name="L" format="1">
  <advance width="1215"/>
  <unicode hex="004C"/>
  <outline>
    <contour>
      <point x="168" y="1462" type="line"/>
      <point x="168" y="-6" type="line"/>
      <point x="1173" y="-6" type="line"/>
      <point x="1195" y="242" type="line"/>
      <point x="375" y="242" type="line"/>
      <point x="567" y="25" type="line"/>
      <point x="567" y="1462" type="line"/>
    </contour>
    <contour>
      <point x="215" y="1456" type="move" name="top"/>
    </contour>
    <contour>
      <point x="547" y="0" type="move" name="bot"/>
    </contour>
    <contour>
      <point x="372" y="824" type="move" name="mid"/>
    </contour>
  </outline>
</glyph>
<glyph name="M" format="1">
  <advance width="1904.100"/>
  <unicode hex="004D"/>
  <outline>
    <contour>
      <point x="175" y="0" type="line"/>
      <point x="443" y="0" type="line"/>
      <point x="443" y="557" type="line"/>
      <point x="448" y="1113" type="line"/>
      <point x="399" y="1113" type="line"/>
      <point x="843" y="200" type="line"/>
      <point x="1052" y="200" type="line"/>
      <point x="1508" y="1113" type="line"/>
      <point x="1456" y="1113" type="line"/>
      <point x="1462" y="557" type="line"/>
      <point x="1462" y="0" type="line"/>
      <point x="1729" y="0" type="line"/>
      <point x="1729" y="557" type="line"/>
      <point x="1699" y="1456" type="line"/>
      <point x="1418" y="1456" type="line"/>
      <point x="903" y="414" type="line"/>
      <point x="1000" y="414" type="line"/>
      <point x="491" y="1456" type="line"/>
      <point x="205" y="1456" type="line"/>
      <point x="175" y="557" type="line"/>
    </contour>
    <contour>
      <point x="952" y="0" type="move" name="bot"/>
    </contour>
    <contour>
      <point x="952" y="1456" type="move" name="top"/>
    </contour>
  </outline>
</glyph>
<glyph name="O" format="1">
  <advance width="1665"/>
  <unicode hex="004F"/>
  <outline>
    <contour>
      <point x="112" y="729" type="curve"/>
      <point x="112" y="251"/>
      <point x="377" y="-22"/>
      <point x="834" y="-22" type="curve"/>
      <point x="1294" y="-22"/>
      <point x="1553" y="249"/>
      <point x="1553" y="731" type="curve"/>
      <point x="1553" y="1214"/>
      <point x="1292" y="1490"/>
      <point x="833" y="1490" type="curve"/>
      <point x="376" y="1490"/>
      <point x="112" y="1215"/>
    </contour>
    <contour>
      <point x="1125" y="728" type="curve"/>
      <point x="1125" y="431"/>
      <point x="1023" y="262"/>
      <point x="835" y="262" type="curve"/>
      <point x="646" y="262"/>
      <point x="539" y="430"/>
      <point x="539" y="728" type="curve"/>
      <point x="539" y="1031"/>
      <point x="646" y="1206"/>
      <point x="834" y="1206" type="curve"/>
      <point x="1024" y="1206"/>
      <point x="1125" y="1031"/>
    </contour>
    <contour>
      <point x="822" y="1456" type="move" name="top"/>
    </contour>
    <contour>
      <point x="794" y="-1" type="move" name="ogonek"/>
    </contour>
  </outline>
</glyph>
<glyph name="P" format="1">
  <advance width="1338.100"/>
  <unicode hex="0050"/>
  <outline>
    <contour>
      <point x="185" y="1456" type="curve"/>
      <point x="185" y="0" type="line"/>
      <point x="469" y="0" type="line"/>
      <point x="469" y="740" type="line"/>
      <point x="401" y="661" type="line"/>
      <point x="1083" y="611"/>
      <point x="1263" y="770"/>
      <point x="1263" y="1081" type="curve" smooth="yes"/>
      <point x="1263" y="1435"/>
      <point x="1001" y="1496"/>
    </contour>
    <contour>
      <point x="404" y="1248" type="line"/>
      <point x="860" y="1270"/>
      <point x="979" y="1243"/>
      <point x="979" y="1073" type="curve" smooth="yes"/>
      <point x="979" y="902"/>
      <point x="891" y="846"/>
      <point x="404" y="877" type="curve"/>
      <point x="469" y="807" type="line"/>
      <point x="469" y="1312" type="line"/>
    </contour>
    <contour>
      <point x="669" y="0" type="move" name="bot"/>
    </contour>
    <contour>
      <point x="669" y="1456" type="move" name="top"/>
    </contour>
  </outline>
</glyph>
<glyph name="Q" format="1">
  <advance width="1669"/>
  <unicode hex="0051"/>
  <outline>
    <contour>
      <point x="661" y="91" type="line"/>
      <point x="661" y="91"/>
      <point x="1094" y="-596"/>
      <point x="1094" y="-596" type="curve"/>
      <point x="1384" y="-446" type="line"/>
      <point x="1015" y="134" type="line"/>
    </contour>
    <component base="O"/>
  </outline>
</glyph>
<glyph name="R" format="1">
  <advance width="1509"/>
  <unicode hex="0052"/>
  <outline>
    <contour>
      <point x="168" y="0" type="line"/>
      <point x="567" y="0" type="line"/>
      <point x="567" y="657" type="line"/>
      <point x="490" y="597" type="line"/>
      <point x="884" y="596" type="line"/>
      <point x="712" y="744" type="line"/>
      <point x="1006" y="0" type="line"/>
      <point x="1432" y="0" type="line"/>
      <point x="1432" y="12" type="line"/>
      <point x="1110" y="752" type="line"/>
      <point x="1035" y="611" type="line"/>
      <point x="1175" y="643"/>
      <point x="1362" y="683"/>
      <point x="1369" y="1006" type="curve"/>
      <point x="1378" y="1364"/>
      <point x="1245" y="1558"/>
      <point x="168" y="1445" type="curve"/>
    </contour>
    <contour>
      <point x="567" y="769" type="line"/>
      <point x="567" y="1299" type="line"/>
      <point x="446" y="1201" type="line"/>
      <point x="906" y="1280"/>
      <point x="990" y="1219"/>
      <point x="987" y="1014" type="curve"/>
      <point x="985" y="887"/>
      <point x="899" y="828"/>
      <point x="760" y="829" type="curve"/>
      <point x="760" y="829"/>
      <point x="495" y="829"/>
      <point x="495" y="829" type="curve"/>
    </contour>
    <contour>
      <point x="762" y="1456" type="move" name="top"/>
    </contour>
    <contour>
      <point x="752" y="0" type="move" name="bot"/>
    </contour>
  </outline>
</glyph>
<glyph name="S" format="1">
  <advance width="1232.180"/>
  <unicode hex="0053"/>
  <outline>
    <contour>
      <point x="220" y="302" type="line"/>
      <point x="141" y="103" type="line"/>
      <point x="256" y="37"/>
      <point x="413" y="-19"/>
      <point x="607" y="-19" type="curve" smooth="yes"/>
      <point x="906" y="-19"/>
      <point x="1118" y="126"/>
      <point x="1120" y="403" type="curve" smooth="yes"/>
      <point x="1122" y="640"/>
      <point x="1005" y="750"/>
      <point x="764" y="832" type="curve" smooth="yes"/>
      <point x="539" y="910" type="line" smooth="yes"/>
      <point x="464" y="936"/>
      <point x="424" y="988"/>
      <point x="424" y="1064" type="curve" smooth="yes"/>
      <point x="424" y="1184"/>
      <point x="512" y="1230"/>
      <point x="655" y="1230" type="curve" smooth="yes"/>
      <point x="778" y="1230"/>
      <point x="904" y="1181"/>
      <point x="993" y="1139" type="curve"/>
      <point x="1011" y="1139" type="line"/>
      <point x="1091" y="1343" type="line"/>
      <point x="970" y="1413"/>
      <point x="813" y="1456"/>
      <point x="645" y="1456" type="curve" smooth="yes"/>
      <point x="370" y="1456"/>
      <point x="159" y="1324"/>
      <point x="159" y="1057" type="curve" smooth="yes"/>
      <point x="159" y="857"/>
      <point x="269" y="735"/>
      <point x="441" y="677" type="curve" smooth="yes"/>
      <point x="681" y="597" type="line" smooth="yes"/>
      <point x="795" y="558"/>
      <point x="853" y="504"/>
      <point x="852" y="406" type="curve" smooth="yes"/>
      <point x="851" y="269"/>
      <point x="773" y="206"/>
      <point x="617" y="206" type="curve" smooth="yes"/>
      <point x="484" y="206"/>
      <point x="331" y="253"/>
      <point x="244" y="302" type="curve"/>
    </contour>
    <contour>
      <point x="616" y="0" type="move" name="bot"/>
    </contour>
    <contour>
      <point x="645" y="1456" type="move" name="top"/>
    </contour>
  </outline>
</glyph>
<glyph name="T" format="1">
  <advance width="1199.900"/>
  <unicode hex="0054"/>
  <outline>
    <contour>
      <point x="52" y="1456" type="line"/>
      <point x="52" y="1229" type="line"/>
      <point x="530" y="1229" type="line"/>
      <point x="457" y="1322" type="line"/>
      <point x="457" y="0" type="line"/>
      <point x="742" y="0" type="line"/>
      <point x="742" y="1321" type="line"/>
      <point x="668" y="1229" type="line"/>
      <point x="1147" y="1229" type="line"/>
      <point x="1147" y="1456" type="line"/>
    </contour>
    <contour>
      <point x="600" y="0" type="move" name="bot"/>
    </contour>
    <contour>
      <point x="600" y="1456" type="move" name="top"/>
    </contour>
    <contour>
      <point x="598" y="688" type="move" name="mid"/>
    </contour>
  </outline>
</glyph>
<glyph name="V" format="1">
  <advance width="1221"/>
  <unicode hex="0056"/>
  <outline>
    <contour>
      <point x="357.033" y="-6" type="line"/>
      <point x="831.581" y="-6" type="line"/>
      <point x="1300.41" y="1462" type="line"/>
      <point x="879.005" y="1462" type="line"/>
      <point x="630.748" y="607.674" type="line"/>
      <point x="522.472" y="201" type="line"/>
      <point x="702.557" y="201" type="line"/>
      <point x="604.749" y="602.42" type="line"/>
      <point x="352.97" y="1462" type="line"/>
      <point x="-72.478" y="1462" type="line"/>
    </contour>
  </outline>
</glyph>
<glyph name="W" format="1">
  <advance width="2054"/>
  <unicode hex="0057"/>
  <outline>
    <contour>
      <point x="1623" y="1460" type="line"/>
      <point x="1398" y="394" type="line"/>
      <point x="1456" y="394" type="line"/>
      <point x="1175" y="1456" type="line"/>
      <point x="862" y="1456" type="line"/>
      <point x="585" y="404" type="line"/>
      <point x="639" y="404" type="line"/>
      <point x="431" y="1460" type="line"/>
      <point x="36" y="1460" type="line"/>
      <point x="391" y="0" type="line"/>
      <point x="764" y="0" type="line"/>
      <point x="1054" y="1082" type="line"/>
      <point x="985" y="1082" type="line"/>
      <point x="1260" y="0" type="line"/>
      <point x="1630" y="0" type="line"/>
      <point x="2018" y="1460" type="line"/>
    </contour>
    <contour>
      <point x="1017" y="1456" type="move" name="top"/>
    </contour>
    <contour>
      <point x="1006" y="0" type="move" name="bot"/>
    </contour>
  </outline>
</glyph>
<glyph name="X" format="1">
  <advance width="1337"/>
  <unicode hex="0058"/>
  <outline>
    <contour>
      <point x="955.464" y="1462" type="line"/>
      <point x="643.864" y="964.061" type="line"/>
      <point x="475.94" y="770.149" type="line"/>
      <point x="-47.7864" y="-6" type="line"/>
      <point x="354.773" y="-6" type="line"/>
      <point x="750.072" y="536.892" type="line"/>
      <point x="899.224" y="721.08" type="line"/>
      <point x="1362.05" y="1462" type="line"/>
    </contour>
    <contour>
      <point x="2.11787" y="1462" type="line"/>
      <point x="965.997" y="-6" type="line"/>
      <point x="1398.89" y="-6" type="line"/>
      <point x="436.015" y="1462" type="line"/>
    </contour>
  </outline>
</glyph>
<glyph name="Y" format="1">
  <advance width="1195"/>
  <unicode hex="0059"/>
  <outline>
    <contour>
      <point x="852" y="1456" type="line"/>
      <point x="555" y="887" type="line"/>
      <point x="621" y="887" type="line"/>
      <point x="332" y="1456" type="line"/>
      <point x="-90" y="1456" type="line"/>
      <point x="410" y="539" type="line"/>
      <point x="391" y="625" type="line"/>
      <point x="391" y="0" type="line"/>
      <point x="789" y="0" type="line"/>
      <point x="789" y="636" type="line"/>
      <point x="767" y="540" type="line"/>
      <point x="1272" y="1456" type="line"/>
    </contour>
    <contour>
      <point x="595" y="1456" type="move" name="top"/>
    </contour>
  </outline>
</glyph>
<glyph name="Z" format="1">
  <advance width="1216"/>
  <unicode hex="005A"/>
  <outline>
    <contour>
      <point x="100" y="0" type="line"/>
      <point x="1162" y="0" type="line"/>
      <point x="1146" y="248" type="line"/>
      <point x="508" y="248" type="line"/>
      <point x="537" y="208" type="line"/>
      <point x="1128" y="1235" type="line"/>
      <point x="1129" y="1456" type="line"/>
      <point x="106" y="1456" type="line"/>
      <point x="124" y="1206" type="line"/>
      <point x="774" y="1206" type="line"/>
      <point x="739" y="1251" type="line"/>
      <point x="100" y="203" type="line"/>
    </contour>
    <contour>
      <point x="534" y="1456" type="move" name="top"/>
    </contour>
    <contour>
      <point x="549" y="0" type="move" name="bot"/>
    </contour>
  </outline>
</glyph>
<glyph name="bracketright" format="1">
  <advance width="744.700"/>
  <unicode hex="005D"/>
  <outline>
    <contour>
      <point x="122" y="-132" type="line"/>
      <point x="573" y="-132" type="line"/>
      <point x="573" y="1500" type="line"/>
      <point x="122" y="1500" type="line"/>
      <point x="122" y="1321" type="line"/>
      <point x="332" y="1321" type="line"/>
      <point x="332" y="46" type="line"/>
      <point x="122" y="46" type="line"/>
    </contour>
  </outline>
</glyph>
<glyph name="asciicircum" format="1">
  <advance width="1355"/>
  <unicode hex="005E"/>
  <outline>
    <contour>
      <point x="632" y="1506" type="line"/>
      <point x="-100" y="-37" type="line"/>
      <point x="162" y="-37" type="line"/>
      <point x="660" y="1114" type="line"/>
      <point x="1209" y="-37" type="line"/>
      <point x="1472" y="-37" type="line"/>
      <point x="672" y="1506" type="line"/>
    </contour>
  </outline>
</glyph>
<glyph name="underscore" format="1">
  <advance width="1018.500"/>
  <unicode hex="005F"/>
  <outline>
    <contour>
      <point x="56" y="-195" type="line"/>
      <point x="1007" y="-195" type="line"/>
      <point x="1007" y="-20" type="line"/>
      <point x="56" y="-20" type="line"/>
    </contour>
  </outline>
</glyph>
<glyph name="grave" format="1">
  <advance width="476"/>
  <unicode hex="0060"/>
  <outline>
    <contour>
      <point x="322" y="1193" type="line"/>
      <point x="484" y="1193" type="line"/>
      <point x="299" y="1572" type="line"/>
      <point x="3" y="1572" type="line"/>
    </contour>
    <contour>
      <point x="368" y="1066" type="move" name="_top"/>
    </contour>
  </outline>
</glyph>
<glyph name="a" format="1">
  <advance width="1154"/>
  <unicode hex="0061"/>
  <outline>
    <contour>
      <point x="546" y="1190"/>
      <point x="109" y="979" type="curve"/>
      <point x="176" y="759" type="line"/>
      <point x="427" y="855"/>
      <point x="685" y="902"/>
      <point x="685" y="697" type="curve" smooth="yes"/>
      <point x="685" y="594" type="line"/>
      <point x="712" y="629" type="line"/>
      <point x="551" y="630" type="line" smooth="yes"/>
      <point x="343" y="631"/>
      <point x="69" y="568"/>
      <point x="69" y="306" type="curve" smooth="yes"/>
      <point x="69" y="85"/>
      <point x="217" y="-25"/>
      <point x="424" y="-16" type="curve" smooth="yes"/>
      <point x="632" y="-7"/>
      <point x="720" y="93"/>
      <point x="803" y="188" type="curve"/>
      <point x="714" y="188" type="line"/>
      <point x="768" y="0" type="line"/>
      <point x="1052" y="0" type="line"/>
      <point x="1052" y="626" type="line" smooth="yes"/>
      <point x="1052" y="1157"/>
    </contour>
    <contour>
      <point x="683" y="224" type="line"/>
      <point x="720" y="296" type="line"/>
      <point x="696" y="270"/>
      <point x="666" y="197"/>
      <point x="538" y="183" type="curve" smooth="yes"/>
      <point x="471" y="176"/>
      <point x="399" y="217"/>
      <point x="402" y="317" type="curve" smooth="yes"/>
      <point x="404" y="435"/>
      <point x="519" y="464"/>
      <point x="632" y="464" type="curve" smooth="yes"/>
      <point x="715" y="464" type="line"/>
      <point x="683" y="499" type="line"/>
    </contour>
    <contour>
      <point x="549" y="1081" type="move" name="top"/>
    </contour>
    <contour>
      <point x="885" y="-1" type="move" name="ogonek"/>
    </contour>
    <contour>
      <point x="633" y="-1" type="move" name="bot"/>
    </contour>
  </outline>
</glyph>
<glyph name="b" format="1">
  <advance width="1263"/>
  <unicode hex="0062"/>
  <outline>
    <contour>
      <point x="117" y="1540" type="line"/>
      <point x="117" y="0" type="line"/>
      <point x="452" y="0" type="line"/>
      <point x="467" y="210" type="line"/>
      <point x="432" y="210" type="line"/>
      <point x="451" y="130"/>
      <point x="540" y="-20"/>
      <point x="749" y="-20" type="curve" smooth="yes"/>
      <point x="1046" y="-20"/>
      <point x="1187" y="217"/>
      <point x="1187" y="550" type="curve" smooth="yes"/>
      <point x="1187" y="861"/>
      <point x="1046" y="1102"/>
      <point x="758" y="1102" type="curve" smooth="yes"/>
      <point x="507" y="1102"/>
      <point x="422" y="897"/>
      <point x="419" y="721" type="curve"/>
      <point x="469" y="722" type="line"/>
      <point x="490" y="1153" type="line"/>
      <point x="490" y="1560" type="line"/>
    </contour>
    <contour>
      <point x="749" y="863"/>
      <point x="811" y="807"/>
      <point x="811" y="550" type="curve" smooth="yes"/>
      <point x="811" y="301"/>
      <point x="735" y="217"/>
      <point x="659" y="217" type="curve" smooth="yes"/>
      <point x="557" y="217"/>
      <point x="521" y="255"/>
      <point x="490" y="294" type="curve"/>
      <point x="490" y="566" type="line" smooth="yes"/>
      <point x="490" y="813"/>
      <point x="586" y="863"/>
      <point x="672" y="863" type="curve" smooth="yes"/>
    </contour>
    <contour>
      <point x="779" y="1082" type="move" name="top"/>
    </contour>
  </outline>
</glyph>
<glyph name="c" format="1">
  <advance width="1145"/>
  <unicode hex="0063"/>
  <outline>
    <contour>
      <point x="821" y="232"/>
      <point x="736" y="217"/>
      <point x="667" y="217" type="curve" smooth="yes"/>
      <point x="547" y="217"/>
      <point x="451" y="307"/>
      <point x="451" y="539" type="curve" smooth="yes"/>
      <point x="451" y="752"/>
      <point x="521" y="863"/>
      <point x="667" y="863" type="curve" smooth="yes"/>
      <point x="790" y="863"/>
      <point x="823" y="809"/>
      <point x="892" y="730" type="curve"/>
      <point x="1072" y="857" type="line"/>
      <point x="1006" y="949"/>
      <point x="923" y="1102"/>
      <point x="633" y="1102" type="curve" smooth="yes"/>
      <point x="289" y="1102"/>
      <point x="76" y="887"/>
      <point x="76" y="539" type="curve" smooth="yes"/>
      <point x="76" y="190"/>
      <point x="290" y="-20"/>
      <point x="634" y="-20" type="curve" smooth="yes"/>
      <point x="916" y="-20"/>
      <point x="999" y="123"/>
      <point x="1072" y="224" type="curve"/>
      <point x="893" y="353" type="line"/>
    </contour>
    <contour>
      <point x="621" y="1082" type="move" name="top"/>
    </contour>
    <contour>
      <point x="630" y="0" type="move" name="bot"/>
    </contour>
  </outline>
</glyph>
<glyph name="e" format="1">
  <advance width="1197"/>
  <unicode hex="0065"/>
  <outline>
    <contour>
      <point x="665" y="-20" type="curve" smooth="yes"/>
      <point x="851" y="-20"/>
      <point x="1018" y="36"/>
      <point x="1101" y="117" type="curve"/>
      <point x="1021" y="306" type="line"/>
      <point x="1003" y="306" type="line"/>
      <point x="920" y="253"/>
      <point x="807" y="219"/>
      <point x="707" y="217" type="curve"/>
      <point x="595" y="215"/>
      <point x="453" y="231"/>
      <point x="453" y="522" type="curve"/>
      <point x="313" y="420" type="line"/>
      <point x="1061" y="420" type="line"/>
      <point x="1104" y="425"/>
      <point x="1114" y="476"/>
      <point x="1113" y="568" type="curve"/>
      <point x="1103" y="874"/>
      <point x="977" y="1102"/>
      <point x="625" y="1102" type="curve" smooth="yes"/>
      <point x="297" y="1102"/>
      <point x="76" y="863"/>
      <point x="76" y="542" type="curve"/>
      <point x="76" y="172"/>
      <point x="317" y="-20"/>
    </contour>
    <contour>
      <point x="455" y="620" type="line"/>
      <point x="466" y="812"/>
      <point x="536" y="875"/>
      <point x="629" y="875" type="curve" smooth="yes"/>
      <point x="710" y="875"/>
      <point x="769" y="811"/>
      <point x="769" y="620" type="curve"/>
    </contour>
    <contour>
      <point x="629" y="1082" type="move" name="top"/>
    </contour>
    <contour>
      <point x="818" y="0" type="move" name="ogonek"/>
    </contour>
    <contour>
      <point x="665" y="0" type="move" name="bot"/>
    </contour>
  </outline>
</glyph>
<glyph name="f" format="1">
  <advance width="792.200"/>
  <unicode hex="0066"/>
  <outline>
    <contour>
      <point x="383" y="1476"/>
      <point x="236" y="1400"/>
      <point x="236" y="1102" type="curve" smooth="yes"/>
      <point x="236" y="1013" type="line"/>
      <point x="282" y="1070" type="line"/>
      <point x="82" y="1047" type="line"/>
      <point x="77" y="891" type="line"/>
      <point x="277" y="891" type="line"/>
      <point x="236" y="954" type="line"/>
      <point x="236" y="0" type="line"/>
      <point x="490" y="0" type="line"/>
      <point x="490" y="950" type="line"/>
      <point x="448" y="891" type="line"/>
      <point x="739" y="891" type="line"/>
      <point x="739" y="1066" type="line"/>
      <point x="438" y="1066" type="line"/>
      <point x="490" y="1015" type="line"/>
      <point x="490" y="1122" type="line" smooth="yes"/>
      <point x="490" y="1265"/>
      <point x="543" y="1285"/>
      <point x="631" y="1285" type="curve" smooth="yes"/>
      <point x="673" y="1285"/>
      <point x="726" y="1278"/>
      <point x="755" y="1273" type="curve"/>
      <point x="777" y="1456" type="line"/>
      <point x="714" y="1469"/>
      <point x="649" y="1476"/>
      <point x="585" y="1476" type="curve" smooth="yes"/>
    </contour>
    <contour>
      <point x="396" y="1402" type="move" name="top"/>
    </contour>
  </outline>
</glyph>
<glyph name="g" format="1">
  <advance width="1192"/>
  <unicode hex="0067"/>
  <outline>
    <contour>
      <point x="584" y="-512" type="curve" smooth="yes"/>
      <point x="973" y="-493"/>
      <point x="1098" y="-212"/>
      <point x="1098" y="-19" type="curve" smooth="yes"/>
      <point x="1098" y="1088" type="line"/>
      <point x="729" y="1088" type="line"/>
      <point x="729" y="929" type="line"/>
      <point x="770" y="931" type="line"/>
      <point x="731" y="1003"/>
      <point x="651" y="1101"/>
      <point x="481" y="1102" type="curve" smooth="yes"/>
      <point x="276" y="1103"/>
      <point x="28" y="960"/>
      <point x="28" y="565" type="curve" smooth="yes"/>
      <point x="28" y="83.5279"/>
      <point x="285" y="1"/>
      <point x="462" y="0" type="curve" smooth="yes"/>
      <point x="725" y="-1"/>
      <point x="774" y="176"/>
      <point x="787" y="218" type="curve"/>
      <point x="734.212" y="231.332" type="line"/>
      <point x="755" y="24" type="line" smooth="yes"/>
      <point x="773" y="-159"/>
      <point x="691" y="-274"/>
      <point x="511" y="-279" type="curve" smooth="yes"/>
      <point x="394" y="-283"/>
      <point x="257" y="-266"/>
      <point x="187" y="-243" type="curve"/>
      <point x="168" y="-243" type="line"/>
      <point x="142" y="-469" type="line"/>
      <point x="276" y="-507"/>
      <point x="424" y="-520"/>
    </contour>
    <contour>
      <point x="569" y="217" type="curve" smooth="yes"/>
      <point x="473.42" y="217"/>
      <point x="405" y="314.115"/>
      <point x="405" y="564" type="curve" smooth="yes"/>
      <point x="405" y="834.149"/>
      <point x="512.324" y="863"/>
      <point x="575" y="863" type="curve" smooth="yes"/>
      <point x="657.692" y="863"/>
      <point x="686" y="837"/>
      <point x="727" y="796" type="curve"/>
      <point x="727" y="269.698" type="line"/>
      <point x="690" y="240"/>
      <point x="626" y="217"/>
    </contour>
    <contour>
      <point x="530" y="1082" type="move" name="top"/>
    </contour>
  </outline>
</glyph>
<glyph name="h" format="1">
  <advance width="1249"/>
  <unicode hex="0068"/>
  <outline>
    <contour>
      <point x="116" y="0" type="line"/>
      <point x="494" y="0" type="line"/>
      <point x="494" y="623" type="line"/>
      <point x="494" y="801"/>
      <point x="561" y="863"/>
      <point x="642" y="863" type="curve"/>
      <point x="726" y="863"/>
      <point x="769" y="814"/>
      <point x="769" y="623" type="curve"/>
      <point x="769" y="0" type="line"/>
      <point x="1147" y="0" type="line"/>
      <point x="1147" y="673" type="line"/>
      <point x="1147" y="938"/>
      <point x="1039" y="1102"/>
      <point x="797" y="1102" type="curve"/>
      <point x="530" y="1102"/>
      <point x="455" y="896"/>
      <point x="434" y="685" type="curve"/>
      <point x="483" y="684" type="line"/>
      <point x="494" y="1160" type="line"/>
      <point x="494" y="1560" type="line"/>
      <point x="116" y="1540" type="line"/>
    </contour>
    <contour>
      <point x="504" y="1535" type="move" name="top"/>
    </contour>
    <contour>
      <point x="396" y="1246" type="move" name="mid"/>
    </contour>
  </outline>
</glyph>
<glyph name="k" format="1">
  <advance width="1227"/>
  <unicode hex="006B"/>
  <outline>
    <contour>
      <point x="116" y="0" type="line"/>
      <point x="494" y="0" type="line"/>
      <point x="494" y="459" type="line"/>
      <point x="457" y="392" type="line"/>
      <point x="559" y="498" type="line"/>
      <point x="515" y="502" type="line"/>
      <point x="825" y="0" type="line"/>
      <point x="1201" y="0" type="line"/>
      <point x="1201" y="32" type="line"/>
      <point x="782" y="668" type="line"/>
      <point x="782" y="572" type="line"/>
      <point x="1188" y="1064" type="line"/>
      <point x="1188" y="1082" type="line"/>
      <point x="798" y="1082" type="line"/>
      <point x="457" y="679" type="line"/>
      <point x="487" y="669" type="line"/>
      <point x="494" y="847" type="line"/>
      <point x="494" y="1560" type="line"/>
      <point x="116" y="1540" type="line"/>
    </contour>
    <contour>
      <point x="649" y="0" type="move" name="bot"/>
    </contour>
  </outline>
</glyph>
<glyph name="l" format="1">
  <advance width="760"/>
  <unicode hex="006C"/>
  <outline>
    <contour>
      <point x="637" y="-10" type="curve" smooth="yes"/>
      <point x="736" y="-6" type="line"/>
      <point x="748" y="217" type="line"/>
      <point x="610" y="235" type="line" smooth="yes"/>
      <point x="536" y="245"/>
      <point x="500" y="281"/>
      <point x="500" y="323" type="curve" smooth="yes"/>
      <point x="500" y="1560" type="line"/>
      <point x="122" y="1540" type="line"/>
      <point x="122" y="366" type="line" smooth="yes"/>
      <point x="122" y="81"/>
      <point x="259" y="-25"/>
    </contour>
    <contour>
      <point x="310" y="1560" type="move" name="top"/>
    </contour>
    <contour>
      <point x="319" y="884" type="move" name="mid"/>
    </contour>
  </outline>
</glyph>
<glyph name="m" format="1">
  <advance width="1902"/>
  <unicode hex="006D"/>
  <outline>
    <contour>
      <point x="116" y="0" type="line"/>
      <point x="494" y="0" type="line"/>
      <point x="494" y="623" type="line"/>
      <point x="494" y="801"/>
      <point x="561" y="863"/>
      <point x="642" y="863" type="curve"/>
      <point x="726" y="863"/>
      <point x="769" y="814"/>
      <point x="769" y="623" type="curve"/>
      <point x="769" y="0" type="line"/>
      <point x="1147" y="0" type="line"/>
      <point x="1147" y="627.526" type="line"/>
      <point x="1147" y="673" type="line"/>
      <point x="1147" y="774"/>
      <point x="1214" y="863"/>
      <point x="1295" y="863" type="curve"/>
      <point x="1379" y="863"/>
      <point x="1422" y="814"/>
      <point x="1422" y="623" type="curve"/>
      <point x="1422" y="0" type="line"/>
      <point x="1800" y="0" type="line"/>
      <point x="1800" y="673" type="line"/>
      <point x="1800" y="938"/>
      <point x="1673" y="1102"/>
      <point x="1431" y="1102" type="curve"/>
      <point x="1201" y="1102"/>
      <point x="1111" y="948"/>
      <point x="1073" y="823" type="curve"/>
      <point x="1136" y="806" type="line"/>
      <point x="1087" y="1042"/>
      <point x="930" y="1102"/>
      <point x="778" y="1102" type="curve"/>
      <point x="567" y="1102"/>
      <point x="474" y="972"/>
      <point x="430" y="854" type="curve"/>
      <point x="468" y="833" type="line"/>
      <point x="441" y="1082" type="line"/>
      <point x="116" y="1082" type="line"/>
    </contour>
    <contour>
      <point x="1072" y="1082" type="move" name="top"/>
    </contour>
  </outline>
</glyph>
<glyph name="n" format="1">
  <advance width="1249"/>
  <unicode hex="006E"/>
  <outline>
    <contour>
      <point x="116" y="0" type="line"/>
      <point x="494" y="0" type="line"/>
      <point x="494" y="623" type="line"/>
      <point x="494" y="801"/>
      <point x="561" y="863"/>
      <point x="642" y="863" type="curve"/>
      <point x="726" y="863"/>
      <point x="769" y="814"/>
      <point x="769" y="623" type="curve"/>
      <point x="769" y="0" type="line"/>
      <point x="1147" y="0" type="line"/>
      <point x="1147" y="673" type="line"/>
      <point x="1147" y="938"/>
      <point x="1020" y="1102"/>
      <point x="778" y="1102" type="curve"/>
      <point x="481" y="1102"/>
      <point x="418" y="846"/>
      <point x="397" y="725" type="curve"/>
      <point x="485" y="684" type="line"/>
      <point x="441" y="1082" type="line"/>
      <point x="116" y="1082" type="line"/>
    </contour>
    <contour>
      <point x="691" y="1082" type="move" name="top"/>
    </contour>
    <contour>
      <point x="647" y="0" type="move" name="bot"/>
    </contour>
  </outline>
</glyph>
<glyph name="o" format="1">
  <advance width="1246.600"/>
  <unicode hex="006F"/>
  <outline>
    <contour>
      <point x="302" y="1102"/>
      <point x="102" y="892"/>
      <point x="102" y="542" type="curve" smooth="yes"/>
      <point x="102" y="205"/>
      <point x="314" y="-20"/>
      <point x="623" y="-20" type="curve" smooth="yes"/>
      <point x="943" y="-20"/>
      <point x="1144" y="201"/>
      <point x="1144" y="542" type="curve" smooth="yes"/>
      <point x="1144" y="885"/>
      <point x="935" y="1102"/>
      <point x="623" y="1102" type="curve" smooth="yes"/>
    </contour>
    <contour>
      <point x="792" y="907"/>
      <point x="890" y="779"/>
      <point x="890" y="541" type="curve" smooth="yes"/>
      <point x="890" y="305"/>
      <point x="791" y="175"/>
      <point x="623" y="175" type="curve" smooth="yes"/>
      <point x="455" y="175"/>
      <point x="356" y="307"/>
      <point x="356" y="541" type="curve" smooth="yes"/>
      <point x="356" y="779"/>
      <point x="458" y="907"/>
      <point x="623" y="907" type="curve" smooth="yes"/>
    </contour>
    <contour>
      <point x="623" y="0" type="move" name="bot"/>
    </contour>
    <contour>
      <point x="708" y="0" type="move" name="ogonek"/>
    </contour>
    <contour>
      <point x="629" y="1066" type="move" name="top"/>
    </contour>
  </outline>
</glyph>
<glyph name="p" format="1">
  <advance width="1192"/>
  <unicode hex="0070"/>
  <outline>
    <contour>
      <point x="60" y="-478" type="line"/>
      <point x="431" y="-478" type="line"/>
      <point x="431" y="-54" type="line"/>
      <point x="424" y="210" type="line"/>
      <point x="375" y="210" type="line"/>
      <point x="394" y="130"/>
      <point x="483" y="-20"/>
      <point x="692" y="-20" type="curve" smooth="yes"/>
      <point x="989" y="-20"/>
      <point x="1130" y="217"/>
      <point x="1130" y="550" type="curve" smooth="yes"/>
      <point x="1130" y="861"/>
      <point x="989" y="1102"/>
      <point x="701" y="1102" type="curve" smooth="yes"/>
      <point x="450" y="1102"/>
      <point x="365" y="897"/>
      <point x="362" y="721" type="curve"/>
      <point x="412" y="722" type="line"/>
      <point x="395" y="1082" type="line"/>
      <point x="60" y="1082" type="line"/>
    </contour>
    <contour>
      <point x="589" y="217" type="curve" smooth="yes"/>
      <point x="507" y="217"/>
      <point x="464" y="255"/>
      <point x="433" y="294" type="curve"/>
      <point x="433" y="767" type="line"/>
      <point x="465" y="826"/>
      <point x="527" y="863"/>
      <point x="603" y="863" type="curve" smooth="yes"/>
      <point x="680" y="863"/>
      <point x="754" y="807"/>
      <point x="754" y="550" type="curve" smooth="yes"/>
      <point x="754" y="261"/>
      <point x="665" y="217"/>
    </contour>
    <contour>
      <point x="592" y="1082" type="move" name="top"/>
    </contour>
  </outline>
</glyph>
<glyph name="q" format="1">
  <advance width="1242.800"/>
  <unicode hex="0071"/>
  <outline>
    <contour>
      <point x="262" y="1091"/>
      <point x="102" y="857"/>
      <point x="102" y="537" type="curve" smooth="yes"/>
      <point x="102" y="211"/>
      <point x="281" y="-19"/>
      <point x="553" y="-19" type="curve" smooth="yes"/>
      <point x="718" y="-19"/>
      <point x="826" y="64"/>
      <point x="900" y="198" type="curve"/>
      <point x="843" y="219" type="line"/>
      <point x="836" y="4" type="line"/>
      <point x="836" y="-433" type="line"/>
      <point x="1090" y="-419" type="line"/>
      <point x="1090" y="1066" type="line"/>
      <point x="867" y="1066" type="line"/>
      <point x="841" y="874" type="line"/>
      <point x="890" y="891" type="line"/>
      <point x="836" y="986"/>
      <point x="742" y="1091"/>
      <point x="549" y="1091" type="curve" smooth="yes"/>
    </contour>
    <contour>
      <point x="759" y="895"/>
      <point x="845" y="785"/>
      <point x="845" y="525" type="curve"/>
      <point x="843" y="276"/>
      <point x="759" y="175"/>
      <point x="598" y="175" type="curve" smooth="yes"/>
      <point x="447" y="175"/>
      <point x="356" y="295"/>
      <point x="356" y="536" type="curve" smooth="yes"/>
      <point x="356" y="782"/>
      <point x="450" y="895"/>
      <point x="596" y="895" type="curve" smooth="yes"/>
    </contour>
  </outline>
</glyph>
<glyph name="r" format="1">
  <advance width="827"/>
  <unicode hex="0072"/>
  <outline>
    <contour>
      <point x="98" y="0" type="line"/>
      <point x="476" y="0" type="line"/>
      <point x="476" y="580" type="line"/>
      <point x="476" y="829.588"/>
      <point x="565.677" y="859"/>
      <point x="766" y="859" type="curve"/>
      <point x="839.712" y="859" type="line"/>
      <point x="848.959" y="1073.74" type="line"/>
      <point x="786.234" y="1084.81"/>
      <point x="729.854" y="1087"/>
      <point x="707" y="1087" type="curve"/>
      <point x="605" y="1087"/>
      <point x="494" y="1053"/>
      <point x="414" y="923" type="curve"/>
      <point x="454" y="894" type="line"/>
      <point x="429" y="1082" type="line"/>
      <point x="98" y="1082" type="line"/>
    </contour>
    <contour>
      <point x="401" y="1082" type="move" name="top"/>
    </contour>
    <contour>
      <point x="351" y="0" type="move" name="bot"/>
    </contour>
  </outline>
</glyph>
<glyph name="s" format="1">
  <advance width="1026"/>
  <unicode hex="0073"/>
  <outline>
    <contour>
      <point x="259" y="374" type="line"/>
      <point x="48" y="238" type="line"/>
      <point x="108" y="65"/>
      <point x="328" y="-20"/>
      <point x="522" y="-20" type="curve" smooth="yes"/>
      <point x="802" y="-20"/>
      <point x="987" y="100"/>
      <point x="984" y="318" type="curve" smooth="yes"/>
      <point x="982" y="448"/>
      <point x="956" y="545"/>
      <point x="731" y="632" type="curve" smooth="yes"/>
      <point x="584" y="689" type="line" smooth="yes"/>
      <point x="499" y="722"/>
      <point x="490" y="767"/>
      <point x="490" y="797" type="curve" smooth="yes"/>
      <point x="490" y="836"/>
      <point x="532" y="863"/>
      <point x="568" y="863" type="curve" smooth="yes"/>
      <point x="627" y="863"/>
      <point x="701" y="829"/>
      <point x="745" y="744" type="curve"/>
      <point x="760" y="744" type="line"/>
      <point x="959" y="880" type="line"/>
      <point x="890" y="1061"/>
      <point x="666" y="1102"/>
      <point x="524" y="1102" type="curve" smooth="yes"/>
      <point x="238" y="1102"/>
      <point x="102" y="978"/>
      <point x="99" y="785" type="curve" smooth="yes"/>
      <point x="96" y="616"/>
      <point x="192" y="522"/>
      <point x="392" y="445" type="curve" smooth="yes"/>
      <point x="499" y="404" type="line" smooth="yes"/>
      <point x="604" y="364"/>
      <point x="627" y="334"/>
      <point x="626" y="299" type="curve" smooth="yes"/>
      <point x="625" y="263"/>
      <point x="603" y="223"/>
      <point x="535" y="223" type="curve" smooth="yes"/>
      <point x="459" y="223"/>
      <point x="352" y="258"/>
      <point x="290" y="374" type="curve"/>
    </contour>
    <contour>
      <point x="488" y="1081" type="move" name="top"/>
    </contour>
    <contour>
      <point x="528" y="0" type="move" name="bot"/>
    </contour>
  </outline>
</glyph>
<glyph name="t" format="1">
  <advance width="860"/>
  <unicode hex="0074"/>
  <outline>
    <contour>
      <point x="654" y="-10" type="curve" smooth="yes"/>
      <point x="654" y="-10"/>
      <point x="880" y="-2"/>
      <point x="880" y="-2" type="curve"/>
      <point x="890" y="240" type="line"/>
      <point x="725" y="247" type="line" smooth="yes"/>
      <point x="608" y="252"/>
      <point x="575" y="303.303"/>
      <point x="575" y="417" type="curve" smooth="yes"/>
      <point x="575" y="909" type="line"/>
      <point x="533" y="867" type="line"/>
      <point x="863" y="867" type="line"/>
      <point x="863" y="1082" type="line"/>
      <point x="533" y="1082" type="line"/>
      <point x="575" y="1045" type="line"/>
      <point x="575" y="1422.7" type="line"/>
      <point x="232.164" y="1395.81" type="line"/>
      <point x="212" y="1058" type="line"/>
      <point x="249" y="1090" type="line"/>
      <point x="50" y="1064" type="line"/>
      <point x="42" y="867" type="line"/>
      <point x="249" y="867" type="line"/>
      <point x="203" y="908" type="line"/>
      <point x="203" y="430" type="line" smooth="yes"/>
      <point x="203" y="145"/>
      <point x="256" y="-10"/>
    </contour>
    <contour>
      <point x="449" y="1317" type="move" name="top"/>
    </contour>
    <contour>
      <point x="531" y="0" type="move" name="bot"/>
    </contour>
    <contour>
      <point x="397" y="726" type="move" name="mid"/>
    </contour>
  </outline>
</glyph>
<glyph name="u" format="1">
  <advance width="1150"/>
  <unicode hex="0075"/>
  <outline>
    <contour>
      <point x="705" y="1088" type="line"/>
      <point x="705" y="104.339" type="line"/>
      <point x="821.233" y="333.284" type="line"/>
      <point x="743.651" y="338.942" type="line"/>
      <point x="727.224" y="309.739"/>
      <point x="628.173" y="220"/>
      <point x="566" y="220" type="curve"/>
      <point x="474.442" y="220"/>
      <point x="429" y="279.892"/>
      <point x="429" y="434" type="curve"/>
      <point x="429" y="1088" type="line"/>
      <point x="51" y="1088" type="line"/>
      <point x="51" y="414" type="line"/>
      <point x="51" y="127.617"/>
      <point x="211.652" y="-22"/>
      <point x="470" y="-22" type="curve"/>
      <point x="640.029" y="-22"/>
      <point x="759.522" y="69.6694"/>
      <point x="803.098" y="126.804" type="curve"/>
      <point x="779.461" y="79.5289" type="line"/>
      <point x="816.116" y="-6" type="line"/>
      <point x="1083" y="-6" type="line"/>
      <point x="1083" y="1088" type="line"/>
    </contour>
    <contour>
      <point x="556" y="1081" type="move" name="top"/>
    </contour>
    <contour>
      <point x="940" y="-1" type="move" name="ogonek"/>
    </contour>
    <contour>
      <point x="619" y="-1" type="move" name="bot"/>
    </contour>
  </outline>
</glyph>
<glyph name="v" format="1">
  <advance width="1079"/>
  <unicode hex="0076"/>
  <outline>
    <contour>
      <point x="353.881" y="-6" type="line"/>
      <point x="720.521" y="-6" type="line"/>
      <point x="1074.4" y="1088" type="line"/>
      <point x="689.49" y="1088" type="line"/>
      <point x="519.344" y="415.472" type="line"/>
      <point x="518.854" y="415.177" type="line"/>
      <point x="476.419" y="203" type="line"/>
      <point x="610.519" y="203" type="line"/>
      <point x="583.603" y="405.366" type="line"/>
      <point x="361.493" y="1088" type="line"/>
      <point x="-29.3226" y="1088" type="line"/>
    </contour>
  </outline>
</glyph>
<glyph name="w" format="1">
  <advance width="1444"/>
  <unicode hex="0077"/>
  <outline>
    <contour>
      <point x="1177.98" y="1088" type="line"/>
      <point x="992.421" y="218" type="line"/>
      <point x="1120.57" y="218" type="line"/>
      <point x="921.83" y="1088" type="line"/>
      <point x="569.793" y="1088" type="line"/>
      <point x="330.488" y="219" type="line"/>
      <point x="453.569" y="219" type="line"/>
      <point x="305.525" y="1088" type="line"/>
      <point x="-41.569" y="1088" type="line"/>
      <point x="211.204" y="-6" type="line"/>
      <point x="555.971" y="-6" type="line"/>
      <point x="806.479" y="851" type="line"/>
      <point x="662.438" y="851" type="line"/>
      <point x="867.307" y="-6" type="line"/>
      <point x="1208.37" y="-6" type="line"/>
      <point x="1496.53" y="1088" type="line"/>
    </contour>
    <contour>
      <point x="729" y="1082" type="move" name="top"/>
    </contour>
  </outline>
</glyph>
<glyph name="x" format="1">
  <advance width="1050"/>
  <unicode hex="0078"/>
  <outline>
    <contour>
      <point x="671.55" y="1088" type="line"/>
      <point x="484.34" y="676.55" type="line"/>
      <point x="357.317" y="624.947" type="line"/>
      <point x="-14.2406" y="-6" type="line"/>
      <point x="378.775" y="-6" type="line"/>
      <point x="597.555" y="435.65" type="line"/>
      <point x="714.826" y="473.415" type="line"/>
      <point x="1068.31" y="1088" type="line"/>
    </contour>
    <contour>
      <point x="3.95915" y="1088" type="line"/>
      <point x="689.479" y="-6" type="line"/>
      <point x="1088.02" y="-6" type="line"/>
      <point x="397.441" y="1088" type="line"/>
    </contour>
  </outline>
</glyph>
<glyph name="y" format="1">
  <advance width="1136"/>
  <unicode hex="0079"/>
  <outline>
    <contour>
      <point x="1146.14" y="1088" type="line"/>
      <point x="780.432" y="1088" type="line"/>
      <point x="489.961" y="335.23" type="line"/>
      <point x="405.943" y="197.201" type="line"/>
      <point x="161.026" y="-426.848" type="line"/>
      <point x="500.436" y="-518.129" type="line"/>
    </contour>
    <contour>
      <point x="789.235" y="23.1973" type="line"/>
      <point x="349.131" y="1088" type="line"/>
      <point x="-35.9799" y="1088" type="line"/>
      <point x="348.043" y="213.948" type="line"/>
    </contour>
    <contour>
      <point x="549" y="1082" type="move" name="top"/>
    </contour>
  </outline>
</glyph>
<glyph name="z" format="1">
  <advance width="963"/>
  <unicode hex="007A"/>
  <outline>
    <contour>
      <point x="72.22" y="1088" type="line"/>
      <point x="64.8162" y="868" type="line"/>
      <point x="680.034" y="868" type="line"/>
      <point x="607.405" y="1038.1" type="line"/>
      <point x="48" y="171.36" type="line"/>
      <point x="48" y="-6" type="line"/>
      <point x="974.757" y="-6" type="line"/>
      <point x="983.199" y="223" type="line"/>
      <point x="313.635" y="223" type="line"/>
      <point x="330.831" y="-2.68812" type="line"/>
      <point x="907" y="887.65" type="line"/>
      <point x="907" y="1088" type="line"/>
    </contour>
    <contour>
      <point x="478" y="1082" type="move" name="top"/>
    </contour>
    <contour>
      <point x="517" y="0" type="move" name="bot"/>
    </contour>
  </outline>
</glyph>
<glyph name="braceleft" format="1">
  <advance width="702.300"/>
  <unicode hex="007B"/>
  <outline>
    <contour>
      <point x="658" y="-259" type="curve"/>
      <point x="658" y="-64" type="line"/>
      <point x="523" y="-62"/>
      <point x="500" y="-27"/>
      <point x="500" y="98" type="curve" smooth="yes"/>
      <point x="500" y="354" type="line" smooth="yes"/>
      <point x="500" y="485"/>
      <point x="438" y="560"/>
      <point x="324" y="593" type="curve"/>
      <point x="446" y="644"/>
      <point x="498" y="713"/>
      <point x="500" y="843" type="curve"/>
      <point x="500" y="1096" type="line" smooth="yes"/>
      <point x="500" y="1223"/>
      <point x="525" y="1258"/>
      <point x="658" y="1260" type="curve"/>
      <point x="658" y="1458" type="line"/>
      <point x="399" y="1458"/>
      <point x="260" y="1391"/>
      <point x="260" y="1171" type="curve" smooth="yes"/>
      <point x="260" y="901" type="line" smooth="yes"/>
      <point x="260" y="752"/>
      <point x="230" y="701"/>
      <point x="58" y="700" type="curve"/>
      <point x="58" y="490" type="line"/>
      <point x="225" y="490"/>
      <point x="260" y="432"/>
      <point x="260" y="285" type="curve" smooth="yes"/>
      <point x="260" y="37" type="line" smooth="yes"/>
      <point x="260" y="-189"/>
      <point x="393" y="-259"/>
    </contour>
  </outline>
</glyph>
<glyph name="bar" format="1">
  <advance width="566.800"/>
  <unicode hex="007C"/>
  <outline>
    <contour>
      <point x="208" y="1532" type="line"/>
      <point x="208" y="-283" type="line"/>
      <point x="407" y="-283" type="line"/>
      <point x="407" y="1532" type="line"/>
    </contour>
  </outline>
</glyph>
<glyph name="braceright" format="1">
  <advance width="970"/>
  <unicode hex="007D"/>
  <outline>
    <contour>
      <point x="105" y="-283" type="line"/>
      <point x="300" y="-283"/>
      <point x="534" y="-172"/>
      <point x="534" y="-35" type="curve" smooth="yes"/>
      <point x="534" y="342" type="line" smooth="yes"/>
      <point x="534" y="436"/>
      <point x="606" y="536"/>
      <point x="756" y="536" type="curve"/>
      <point x="756" y="777" type="line"/>
      <point x="590" y="781"/>
      <point x="534" y="872"/>
      <point x="534" y="964" type="curve" smooth="yes"/>
      <point x="534" y="1303" type="line" smooth="yes"/>
      <point x="534" y="1478"/>
      <point x="315" y="1606"/>
      <point x="105" y="1606" type="curve"/>
      <point x="105" y="1363" type="line"/>
      <point x="234" y="1359"/>
      <point x="288" y="1293"/>
      <point x="288" y="1217" type="curve" smooth="yes"/>
      <point x="288" y="915" type="line" smooth="yes"/>
      <point x="290" y="847"/>
      <point x="353" y="721"/>
      <point x="451" y="657" type="curve"/>
      <point x="349" y="577"/>
      <point x="288" y="485"/>
      <point x="288" y="405" type="curve" smooth="yes"/>
      <point x="288" y="98" type="line" smooth="yes"/>
      <point x="288" y="16"/>
      <point x="230" y="-41"/>
      <point x="105" y="-45" type="curve"/>
    </contour>
  </outline>
</glyph>
<glyph name="cent" format="1">
  <advance width="1164"/>
  <unicode hex="00A2"/>
  <outline>
    <contour>
      <point x="896" y="1360" type="line"/>
      <point x="917" y="1032" type="line"/>
      <point x="1047" y="1032" type="line"/>
      <point x="1047" y="1360" type="line"/>
    </contour>
    <contour>
      <point x="895" y="58" type="line"/>
      <point x="902" y="-243" type="line"/>
      <point x="1020" y="-243" type="line"/>
      <point x="1005" y="58" type="line"/>
    </contour>
    <component base="c" xOffset="341"/>
  </outline>
</glyph>
<glyph name="sterling" format="1">
  <advance width="1228"/>
  <unicode hex="00A3"/>
  <outline>
    <contour>
      <point x="1048" y="1211" type="line"/>
      <point x="1166" y="1434" type="line"/>
      <point x="1136" y="1457"/>
      <point x="980" y="1560"/>
      <point x="750" y="1560" type="curve" smooth="yes"/>
      <point x="403" y="1560"/>
      <point x="275" y="1345"/>
      <point x="275" y="983" type="curve" smooth="yes"/>
      <point x="275" y="877" type="line"/>
      <point x="86" y="877" type="line"/>
      <point x="86" y="664" type="line"/>
      <point x="275" y="664" type="line"/>
      <point x="275" y="260" type="line"/>
      <point x="97" y="237" type="line"/>
      <point x="107" y="0" type="line"/>
      <point x="1141" y="0" type="line"/>
      <point x="1145" y="262" type="line"/>
      <point x="653" y="262" type="line"/>
      <point x="653" y="664" type="line"/>
      <point x="954" y="664" type="line"/>
      <point x="954" y="877" type="line"/>
      <point x="653" y="877" type="line"/>
      <point x="653" y="1049" type="line" smooth="yes"/>
      <point x="653" y="1191"/>
      <point x="721" y="1264"/>
      <point x="835" y="1263" type="curve" smooth="yes"/>
      <point x="889" y="1263"/>
      <point x="954" y="1245"/>
      <point x="1026" y="1211" type="curve"/>
    </contour>
  </outline>
</glyph>
<glyph name="currency" format="1">
  <advance width="1054.700"/>
  <unicode hex="00A4"/>
  <outline>
    <contour>
      <point x="795" y="1032" type="line"/>
      <point x="727" y="1084"/>
      <point x="649" y="1113"/>
      <point x="560" y="1113" type="curve" smooth="yes"/>
      <point x="472" y="1113"/>
      <point x="389" y="1082"/>
      <point x="324" y="1034" type="curve"/>
      <point x="152" y="1198" type="line"/>
      <point x="54" y="1102" type="line"/>
      <point x="229" y="934" type="line"/>
      <point x="185" y="866"/>
      <point x="160" y="791"/>
      <point x="160" y="709" type="curve" smooth="yes"/>
      <point x="160" y="626"/>
      <point x="186" y="549"/>
      <point x="229" y="484" type="curve"/>
      <point x="55" y="317" type="line"/>
      <point x="152" y="223" type="line"/>
      <point x="322" y="385" type="line"/>
      <point x="389" y="333"/>
      <point x="469" y="306"/>
      <point x="560" y="306" type="curve" smooth="yes"/>
      <point x="648" y="306"/>
      <point x="729" y="336"/>
      <point x="795" y="386" type="curve"/>
      <point x="970" y="221" type="line"/>
      <point x="1063" y="318" type="line"/>
      <point x="891" y="484" type="line"/>
      <point x="935" y="551"/>
      <point x="959" y="625"/>
      <point x="959" y="709" type="curve" smooth="yes"/>
      <point x="959" y="791"/>
      <point x="933" y="869"/>
      <point x="890" y="934" type="curve"/>
      <point x="1064" y="1101" type="line"/>
      <point x="970" y="1198" type="line"/>
    </contour>
    <contour>
      <point x="704" y="971"/>
      <point x="817" y="854"/>
      <point x="817" y="709" type="curve" smooth="yes"/>
      <point x="817" y="564"/>
      <point x="705" y="447"/>
      <point x="559" y="447" type="curve" smooth="yes"/>
      <point x="416" y="447"/>
      <point x="303" y="564"/>
      <point x="303" y="709" type="curve" smooth="yes"/>
      <point x="303" y="853"/>
      <point x="416" y="971"/>
      <point x="559" y="971" type="curve" smooth="yes"/>
    </contour>
  </outline>
</glyph>
<glyph name="yen" format="1">
  <advance width="1314"/>
  <unicode hex="00A5"/>
  <outline>
    <contour>
      <point x="176" y="490" type="line"/>
      <point x="176" y="305" type="line"/>
      <point x="1140" y="305" type="line"/>
      <point x="1140" y="490" type="line"/>
    </contour>
    <contour>
      <point x="1140" y="686" type="line"/>
      <point x="1140" y="871" type="line"/>
      <point x="176" y="871" type="line"/>
      <point x="176" y="686" type="line"/>
    </contour>
    <component base="Y" xOffset="65"/>
  </outline>
</glyph>
<glyph name="brokenbar" format="1">
  <advance width="663.200"/>
  <unicode hex="00A6"/>
  <outline>
    <contour>
      <point x="255" y="364" type="line"/>
      <point x="255" y="-335" type="line"/>
      <point x="454" y="-335" type="line"/>
      <point x="454" y="364" type="line"/>
    </contour>
    <contour>
      <point x="255" y="1439" type="line"/>
      <point x="255" y="742" type="line"/>
      <point x="454" y="742" type="line"/>
      <point x="454" y="1439" type="line"/>
    </contour>
  </outline>
</glyph>
<glyph name="section" format="1">
  <advance width="1018"/>
  <unicode hex="00A7"/>
  <outline>
    <contour>
      <point x="519" y="-20" type="curve" smooth="yes"/>
      <point x="723" y="-20"/>
      <point x="890" y="84"/>
      <point x="890" y="358" type="curve" smooth="yes"/>
      <point x="890" y="442"/>
      <point x="853" y="520"/>
      <point x="776" y="582" type="curve"/>
      <point x="837" y="633"/>
      <point x="890" y="699"/>
      <point x="890" y="790" type="curve" smooth="yes"/>
      <point x="890" y="914"/>
      <point x="795" y="1031"/>
      <point x="640" y="1092" type="curve" smooth="yes"/>
      <point x="447" y="1168"/>
      <point x="421" y="1208"/>
      <point x="421" y="1252" type="curve" smooth="yes"/>
      <point x="421" y="1303"/>
      <point x="512" y="1324"/>
      <point x="536" y="1324" type="curve" smooth="yes"/>
      <point x="582" y="1324"/>
      <point x="675" y="1309"/>
      <point x="793" y="1211" type="curve"/>
      <point x="876" y="1448" type="line"/>
      <point x="770" y="1520"/>
      <point x="637" y="1554"/>
      <point x="544" y="1554" type="curve" smooth="yes"/>
      <point x="387" y="1554"/>
      <point x="165" y="1486"/>
      <point x="165" y="1228" type="curve" smooth="yes"/>
      <point x="165" y="1096"/>
      <point x="203" y="1012"/>
      <point x="293" y="951" type="curve"/>
      <point x="211" y="889"/>
      <point x="163" y="821"/>
      <point x="163" y="730" type="curve" smooth="yes"/>
      <point x="163" y="599"/>
      <point x="272" y="512"/>
      <point x="420" y="457" type="curve" smooth="yes"/>
      <point x="627" y="375"/>
      <point x="634" y="346"/>
      <point x="634" y="311" type="curve" smooth="yes"/>
      <point x="634" y="260"/>
      <point x="593" y="214"/>
      <point x="495" y="214" type="curve" smooth="yes"/>
      <point x="442" y="214"/>
      <point x="307" y="244"/>
      <point x="169" y="332" type="curve"/>
      <point x="169" y="66" type="line"/>
      <point x="270" y="11"/>
      <point x="413" y="-20"/>
    </contour>
    <contour>
      <point x="603" y="675" type="curve"/>
      <point x="636" y="661"/>
      <point x="410" y="739"/>
      <point x="569" y="691" type="curve" smooth="yes"/>
      <point x="448" y="737"/>
      <point x="421" y="776"/>
      <point x="421" y="819" type="curve" smooth="yes"/>
      <point x="421" y="842"/>
      <point x="446" y="861"/>
      <point x="466" y="872" type="curve"/>
      <point x="455" y="877"/>
      <point x="655" y="808"/>
      <point x="515" y="852" type="curve" smooth="yes"/>
      <point x="628" y="808"/>
      <point x="634" y="778"/>
      <point x="634" y="742" type="curve" smooth="yes"/>
      <point x="634" y="716"/>
      <point x="624" y="694"/>
    </contour>
  </outline>
</glyph>
<glyph name="dieresis" format="1">
  <advance width="1121"/>
  <unicode hex="00A8"/>
  <outline>
    <contour>
      <point x="274" y="1193" type="curve" smooth="yes"/>
      <point x="386" y="1193"/>
      <point x="457" y="1265"/>
      <point x="457" y="1380" type="curve" smooth="yes"/>
      <point x="457" y="1497"/>
      <point x="386" y="1570"/>
      <point x="274" y="1570" type="curve" smooth="yes"/>
      <point x="159" y="1570"/>
      <point x="87" y="1497"/>
      <point x="87" y="1380" type="curve" smooth="yes"/>
      <point x="87" y="1265"/>
      <point x="159" y="1193"/>
    </contour>
    <contour>
      <point x="840" y="1193" type="curve" smooth="yes"/>
      <point x="953" y="1193"/>
      <point x="1024" y="1265"/>
      <point x="1024" y="1380" type="curve" smooth="yes"/>
      <point x="1024" y="1497"/>
      <point x="953" y="1570"/>
      <point x="840" y="1570" type="curve" smooth="yes"/>
      <point x="725" y="1570"/>
      <point x="652" y="1497"/>
      <point x="652" y="1380" type="curve" smooth="yes"/>
      <point x="652" y="1265"/>
      <point x="725" y="1193"/>
    </contour>
    <contour>
      <point x="554" y="1082" type="move" name="_top"/>
    </contour>
  </outline>
</glyph>
<glyph name="copyright" format="1">
  <advance width="1706"/>
  <unicode hex="00A9"/>
  <outline>
    <contour>
      <point x="935" y="274" type="curve" smooth="yes"/>
      <point x="1058" y="274"/>
      <point x="1165" y="307"/>
      <point x="1245" y="362" type="curve"/>
      <point x="1186" y="492" type="line"/>
      <point x="1121" y="450"/>
      <point x="1023" y="426"/>
      <point x="951" y="426" type="curve" smooth="yes"/>
      <point x="761" y="426"/>
      <point x="648" y="571"/>
      <point x="648" y="794" type="curve" smooth="yes"/>
      <point x="648" y="1021"/>
      <point x="760" y="1165"/>
      <point x="947" y="1165" type="curve" smooth="yes"/>
      <point x="1020" y="1165"/>
      <point x="1112" y="1144"/>
      <point x="1182" y="1100" type="curve"/>
      <point x="1244" y="1232" type="line"/>
      <point x="1162" y="1291"/>
      <point x="1056" y="1318"/>
      <point x="935" y="1318" type="curve" smooth="yes"/>
      <point x="659" y="1318"/>
      <point x="476" y="1083"/>
      <point x="476" y="792" type="curve" smooth="yes"/>
      <point x="476" y="493"/>
      <point x="667" y="274"/>
    </contour>
    <contour>
      <point x="955" y="127" type="curve" smooth="yes"/>
      <point x="581" y="127"/>
      <point x="318" y="438"/>
      <point x="318" y="805" type="curve" smooth="yes"/>
      <point x="318" y="1166"/>
      <point x="581" y="1471"/>
      <point x="952" y="1471" type="curve" smooth="yes"/>
      <point x="1330" y="1471"/>
      <point x="1591" y="1164"/>
      <point x="1591" y="803" type="curve" smooth="yes"/>
      <point x="1591" y="437"/>
      <point x="1333" y="127"/>
    </contour>
    <contour>
      <point x="955" y="-3" type="curve" smooth="yes"/>
      <point x="1379" y="-3"/>
      <point x="1729" y="337"/>
      <point x="1729" y="805" type="curve" smooth="yes"/>
      <point x="1729" y="1266"/>
      <point x="1378" y="1600"/>
      <point x="952" y="1600" type="curve" smooth="yes"/>
      <point x="530" y="1600"/>
      <point x="179" y="1268"/>
      <point x="179" y="805" type="curve" smooth="yes"/>
      <point x="179" y="337"/>
      <point x="532" y="-3"/>
    </contour>
  </outline>
</glyph>
<glyph name="guillemotleft" format="1">
  <advance width="953.300"/>
  <unicode hex="00AB"/>
  <outline>
    <contour>
      <point x="352" y="129" type="line"/>
      <point x="548" y="182" type="line"/>
      <point x="291" y="545" type="line"/>
      <point x="553" y="908" type="line"/>
      <point x="355" y="960" type="line"/>
      <point x="50" y="542" type="line"/>
    </contour>
    <contour>
      <point x="754" y="129" type="line"/>
      <point x="950" y="182" type="line"/>
      <point x="693" y="545" type="line"/>
      <point x="954" y="908" type="line"/>
      <point x="756" y="960" type="line"/>
      <point x="452" y="542" type="line"/>
    </contour>
  </outline>
</glyph>
<glyph name="uni00AD" format="1">
  <advance width="695.600"/>
  <unicode hex="00AD"/>
  <outline>
    <contour>
      <point x="71" y="343" type="line"/>
      <point x="669" y="343" type="line"/>
      <point x="669" y="545" type="line"/>
      <point x="71" y="545" type="line"/>
    </contour>
  </outline>
</glyph>
<glyph name="registered" format="1">
  <advance width="1907"/>
  <unicode hex="00AE"/>
  <outline>
    <contour>
      <point x="160" y="793" type="curve" smooth="yes"/>
      <point x="160" y="326"/>
      <point x="523" y="-14"/>
      <point x="954" y="-14" type="curve" smooth="yes"/>
      <point x="1388" y="-14"/>
      <point x="1750" y="326"/>
      <point x="1750" y="793" type="curve" smooth="yes"/>
      <point x="1750" y="1257"/>
      <point x="1385" y="1600"/>
      <point x="951" y="1600" type="curve" smooth="yes"/>
      <point x="521" y="1600"/>
      <point x="160" y="1259"/>
    </contour>
    <contour>
      <point x="1606" y="791" type="curve" smooth="yes"/>
      <point x="1606" y="427"/>
      <point x="1337" y="116"/>
      <point x="954" y="116" type="curve" smooth="yes"/>
      <point x="573" y="116"/>
      <point x="303" y="427"/>
      <point x="303" y="793" type="curve" smooth="yes"/>
      <point x="303" y="1156"/>
      <point x="571" y="1469"/>
      <point x="951" y="1469" type="curve" smooth="yes"/>
      <point x="1337" y="1469"/>
      <point x="1606" y="1155"/>
    </contour>
    <contour>
      <point x="629" y="1295" type="line"/>
      <point x="629" y="273" type="line"/>
      <point x="808" y="273" type="line"/>
      <point x="808" y="704" type="line"/>
      <point x="933" y="704" type="line"/>
      <point x="971" y="666"/>
      <point x="1164" y="273"/>
      <point x="1164" y="273" type="curve"/>
      <point x="1363" y="273" type="line"/>
      <point x="1363" y="273"/>
      <point x="1176" y="640"/>
      <point x="1107" y="731" type="curve"/>
      <point x="1261" y="774"/>
      <point x="1315" y="862"/>
      <point x="1315" y="1010" type="curve" smooth="yes"/>
      <point x="1315" y="1220"/>
      <point x="1162" y="1295"/>
      <point x="958" y="1295" type="curve" smooth="yes"/>
    </contour>
    <contour>
      <point x="1137" y="1006" type="curve" smooth="yes"/>
      <point x="1137" y="880"/>
      <point x="1056" y="864"/>
      <point x="915" y="864" type="curve" smooth="yes"/>
      <point x="807" y="864" type="line"/>
      <point x="807" y="1138" type="line"/>
      <point x="910" y="1138" type="line" smooth="yes"/>
      <point x="1065" y="1138"/>
      <point x="1137" y="1131"/>
    </contour>
  </outline>
</glyph>
<glyph name="macron" format="1">
  <advance width="1028"/>
  <unicode hex="00AF"/>
  <outline>
    <contour>
      <point x="148" y="1173" type="line"/>
      <point x="876" y="1173" type="line"/>
      <point x="876" y="1322" type="line"/>
      <point x="148" y="1322" type="line"/>
    </contour>
    <contour>
      <point x="500" y="1235" type="move" name="_mid"/>
    </contour>
    <contour>
      <point x="509" y="1082" type="move" name="_top"/>
    </contour>
  </outline>
</glyph>
<glyph name="plusminus" format="1">
  <advance width="1136"/>
  <unicode hex="00B1"/>
  <outline>
    <contour>
      <point x="464" y="1239" type="line"/>
      <point x="464" y="882" type="line"/>
      <point x="101" y="882" type="line"/>
      <point x="101" y="641" type="line"/>
      <point x="464" y="641" type="line"/>
      <point x="464" y="277" type="line"/>
      <point x="689" y="277" type="line"/>
      <point x="689" y="641" type="line"/>
      <point x="1054" y="641" type="line"/>
      <point x="1054" y="882" type="line"/>
      <point x="690" y="882" type="line"/>
      <point x="690" y="1239" type="line"/>
    </contour>
    <contour>
      <point x="105" y="210" type="line"/>
      <point x="105" y="0" type="line"/>
      <point x="1044" y="0" type="line"/>
      <point x="1044" y="210" type="line"/>
    </contour>
  </outline>
</glyph>
<glyph name="twosuperior" format="1">
  <advance width="850"/>
  <unicode hex="00B2"/>
  <outline>
    <contour>
      <point x="162" y="649" type="line"/>
      <point x="725" y="649" type="line"/>
      <point x="725" y="792" type="line"/>
      <point x="403" y="792" type="line"/>
      <point x="570" y="955"/>
      <point x="734" y="1082"/>
      <point x="716" y="1251" type="curve" smooth="yes"/>
      <point x="699" y="1409"/>
      <point x="573" y="1483"/>
      <point x="418" y="1483" type="curve" smooth="yes"/>
      <point x="295" y="1483"/>
      <point x="171" y="1409"/>
      <point x="99" y="1300" type="curve"/>
      <point x="220" y="1201" type="line"/>
      <point x="284" y="1287"/>
      <point x="360" y="1320"/>
      <point x="413" y="1323" type="curve" smooth="yes"/>
      <point x="460" y="1326"/>
      <point x="520" y="1305"/>
      <point x="528" y="1229" type="curve" smooth="yes"/>
      <point x="539" y="1119"/>
      <point x="424" y="1045"/>
      <point x="162" y="787" type="curve"/>
    </contour>
  </outline>
</glyph>
<glyph name="acute" format="1">
  <advance width="552.200"/>
  <unicode hex="00B4"/>
  <outline>
    <contour>
      <point x="163" y="1193" type="line"/>
      <point x="318" y="1193" type="line"/>
      <point x="626" y="1571" type="line"/>
      <point x="333" y="1571" type="line"/>
    </contour>
    <contour>
      <point x="246" y="1066" type="move" name="_top"/>
    </contour>
  </outline>
</glyph>
<glyph name="uni00B5" format="1">
  <advance width="1150"/>
  <unicode hex="00B5"/>
  <outline>
    <contour>
      <point x="95" y="338" type="line"/>
      <point x="95" y="-332" type="line"/>
      <point x="385" y="-332" type="line"/>
      <point x="385" y="338" type="line"/>
    </contour>
    <component base="u"/>
  </outline>
</glyph>
<glyph name="paragraph" format="1">
  <advance width="1059.300"/>
  <unicode hex="00B6"/>
  <outline>
    <contour>
      <point x="547" y="1434" type="line" smooth="yes"/>
      <point x="264" y="1434"/>
      <point x="72" y="1351"/>
      <point x="72" y="1113" type="curve" smooth="yes"/>
      <point x="72" y="931"/>
      <point x="204" y="812"/>
      <point x="409" y="812" type="curve"/>
      <point x="409" y="-16" type="line"/>
      <point x="576" y="-16" type="line"/>
      <point x="576" y="1263" type="line"/>
      <point x="725" y="1263" type="line"/>
      <point x="725" y="-16" type="line"/>
      <point x="892" y="-16" type="line"/>
      <point x="892" y="1263" type="line"/>
      <point x="968" y="1263" type="line"/>
      <point x="968" y="1434" type="line"/>
    </contour>
  </outline>
</glyph>
<glyph name="cedilla" format="1">
  <advance width="766"/>
  <unicode hex="00B8"/>
  <outline>
    <contour>
      <point x="443" y="-375" type="curve" smooth="yes"/>
      <point x="588" y="-375"/>
      <point x="691" y="-300"/>
      <point x="691" y="-187" type="curve" smooth="yes"/>
      <point x="691" y="-45"/>
      <point x="544" y="-4"/>
      <point x="427" y="-48" type="curve"/>
      <point x="427" y="-122" type="line"/>
      <point x="507" y="-113"/>
      <point x="556" y="-139"/>
      <point x="551" y="-195" type="curve" smooth="yes"/>
      <point x="544" y="-271"/>
      <point x="452" y="-299"/>
      <point x="326" y="-252" type="curve"/>
      <point x="296" y="-344" type="line"/>
      <point x="339" y="-364"/>
      <point x="388" y="-375"/>
    </contour>
    <contour>
      <point x="526" y="24" type="move" name="_bot"/>
    </contour>
  </outline>
</glyph>
<glyph name="guillemotright" format="1">
  <advance width="1019.900"/>
  <unicode hex="00BB"/>
  <outline>
    <contour>
      <point x="279" y="129" type="line"/>
      <point x="583" y="547" type="line"/>
      <point x="280" y="960" type="line"/>
      <point x="85" y="908" type="line"/>
      <point x="343" y="544" type="line"/>
      <point x="82" y="182" type="line"/>
    </contour>
    <contour>
      <point x="671" y="129" type="line"/>
      <point x="977" y="547" type="line"/>
      <point x="674" y="960" type="line"/>
      <point x="480" y="908" type="line"/>
      <point x="735" y="544" type="line"/>
      <point x="476" y="182" type="line"/>
    </contour>
  </outline>
</glyph>
<glyph name="onequarter" format="1">
  <advance width="1533.600"/>
  <unicode hex="00BC"/>
  <outline>
    <contour>
      <point x="71" y="577" type="line"/>
      <point x="528" y="577" type="line"/>
      <point x="528" y="730" type="line"/>
      <point x="396" y="730" type="line"/>
      <point x="396" y="1433" type="line"/>
      <point x="254" y="1434" type="line"/>
      <point x="250" y="1430"/>
      <point x="60" y="1330"/>
      <point x="55" y="1328" type="curve"/>
      <point x="55" y="1173" type="line"/>
      <point x="60" y="1175"/>
      <point x="172" y="1227"/>
      <point x="208" y="1245" type="curve"/>
      <point x="208" y="730" type="line"/>
      <point x="71" y="730" type="line"/>
    </contour>
    <contour>
      <point x="1269" y="8" type="line"/>
      <point x="1430" y="8" type="line"/>
      <point x="1431" y="172" type="line"/>
      <point x="1543" y="172" type="line"/>
      <point x="1539" y="313" type="line"/>
      <point x="1432" y="313" type="line"/>
      <point x="1432" y="838" type="line"/>
      <point x="1259" y="838" type="line"/>
      <point x="894" y="314" type="line"/>
      <point x="894" y="172" type="line"/>
      <point x="1269" y="172" type="line"/>
    </contour>
    <contour>
      <point x="260" y="0" type="line"/>
      <point x="460" y="0" type="line"/>
      <point x="1409" y="1423" type="line"/>
      <point x="1214" y="1423" type="line"/>
    </contour>
    <contour>
      <point x="1093" y="313" type="line"/>
      <point x="1267" y="597" type="line"/>
      <point x="1267" y="313" type="line"/>
    </contour>
  </outline>
</glyph>
<glyph name="onehalf" format="1">
  <advance width="1586"/>
  <unicode hex="00BD"/>
  <outline>
    <contour>
      <point x="41" y="601" type="line"/>
      <point x="527" y="601" type="line"/>
      <point x="527" y="781" type="line"/>
      <point x="392" y="781" type="line"/>
      <point x="392" y="1512" type="line"/>
      <point x="230" y="1512" type="line"/>
      <point x="205" y="1500"/>
      <point x="77" y="1422"/>
      <point x="22" y="1394" type="curve"/>
      <point x="22" y="1215" type="line"/>
      <point x="23" y="1211"/>
      <point x="140" y="1273"/>
      <point x="177" y="1291" type="curve"/>
      <point x="177" y="781" type="line"/>
      <point x="41" y="781" type="line"/>
    </contour>
    <contour>
      <point x="968" y="0" type="line"/>
      <point x="1531" y="0" type="line"/>
      <point x="1551" y="164" type="line"/>
      <point x="1254" y="164" type="line"/>
      <point x="1376" y="273"/>
      <point x="1301" y="187"/>
      <point x="1399" y="282" type="curve" smooth="yes"/>
      <point x="1478" y="358"/>
      <point x="1551" y="476"/>
      <point x="1551" y="598" type="curve" smooth="yes"/>
      <point x="1551" y="782"/>
      <point x="1403" y="888"/>
      <point x="1268" y="888" type="curve" smooth="yes"/>
      <point x="1140" y="888"/>
      <point x="1045" y="848"/>
      <point x="981" y="758" type="curve"/>
      <point x="1064" y="620" type="line"/>
      <point x="1105" y="678"/>
      <point x="1179" y="709"/>
      <point x="1247" y="709" type="curve" smooth="yes"/>
      <point x="1295" y="709"/>
      <point x="1354" y="665"/>
      <point x="1354" y="592" type="curve" smooth="yes"/>
      <point x="1354" y="555"/>
      <point x="1281" y="463"/>
      <point x="1260" y="431" type="curve" smooth="yes"/>
      <point x="1053" y="206"/>
      <point x="1057" y="256"/>
      <point x="968" y="162" type="curve"/>
    </contour>
    <contour>
      <point x="215" y="0" type="line"/>
      <point x="450" y="0" type="line"/>
      <point x="1454" y="1512" type="line"/>
      <point x="1228" y="1512" type="line"/>
    </contour>
  </outline>
</glyph>
<glyph name="threequarters" format="1">
  <advance width="1501.100"/>
  <unicode hex="00BE"/>
  <outline>
    <contour>
      <point x="307" y="594" type="curve" smooth="yes"/>
      <point x="459" y="594"/>
      <point x="600" y="681"/>
      <point x="600" y="851" type="curve" smooth="yes"/>
      <point x="600" y="937"/>
      <point x="545" y="1007"/>
      <point x="476" y="1040" type="curve"/>
      <point x="567" y="1081"/>
      <point x="581" y="1172"/>
      <point x="581" y="1197" type="curve" smooth="yes"/>
      <point x="581" y="1352"/>
      <point x="448" y="1422"/>
      <point x="316" y="1422" type="curve" smooth="yes"/>
      <point x="220" y="1422"/>
      <point x="117" y="1389"/>
      <point x="52" y="1332" type="curve"/>
      <point x="121" y="1221" type="line"/>
      <point x="159" y="1250"/>
      <point x="237" y="1276"/>
      <point x="303" y="1276" type="curve" smooth="yes"/>
      <point x="372" y="1276"/>
      <point x="405" y="1242"/>
      <point x="405" y="1191" type="curve" smooth="yes"/>
      <point x="405" y="1136"/>
      <point x="367" y="1099"/>
      <point x="264" y="1099" type="curve" smooth="yes"/>
      <point x="182" y="1099" type="line"/>
      <point x="182" y="956" type="line"/>
      <point x="264" y="957" type="line"/>
      <point x="369" y="957"/>
      <point x="427" y="924"/>
      <point x="427" y="853" type="curve" smooth="yes"/>
      <point x="427" y="775"/>
      <point x="377" y="739"/>
      <point x="299" y="739" type="curve" smooth="yes"/>
      <point x="239" y="739"/>
      <point x="159" y="760"/>
      <point x="118" y="797" type="curve"/>
      <point x="60" y="673" type="line"/>
      <point x="129" y="620"/>
      <point x="223" y="594"/>
    </contour>
    <contour>
      <point x="1225" y="18" type="line"/>
      <point x="1385" y="18" type="line"/>
      <point x="1386" y="189" type="line"/>
      <point x="1498" y="189" type="line"/>
      <point x="1495" y="329" type="line"/>
      <point x="1387" y="329" type="line"/>
      <point x="1387" y="859" type="line"/>
      <point x="1214" y="859" type="line"/>
      <point x="850" y="326" type="line"/>
      <point x="850" y="189" type="line"/>
      <point x="1225" y="189" type="line"/>
    </contour>
    <contour>
      <point x="240" y="18" type="line"/>
      <point x="442" y="18" type="line"/>
      <point x="1389" y="1423" type="line"/>
      <point x="1192" y="1423" type="line"/>
    </contour>
    <contour>
      <point x="1048" y="329" type="line"/>
      <point x="1223" y="612" type="line"/>
      <point x="1223" y="329" type="line"/>
    </contour>
  </outline>
</glyph>
<glyph name="AE" format="1">
  <advance width="2872"/>
  <unicode hex="00C6"/>
  <outline>
    <contour>
      <point x="1357" y="1456" type="line"/>
      <point x="464" y="0" type="line"/>
      <point x="853" y="0" type="line"/>
      <point x="1058" y="348" type="line"/>
      <point x="1491" y="348" type="line"/>
      <point x="1491" y="0" type="line"/>
      <point x="2475" y="0" type="line"/>
      <point x="2484" y="259" type="line"/>
      <point x="1790" y="259" type="line"/>
      <point x="1790" y="608" type="line"/>
      <point x="2423" y="608" type="line"/>
      <point x="2423" y="859" type="line"/>
      <point x="1790" y="859" type="line"/>
      <point x="1790" y="1206" type="line"/>
      <point x="2439" y="1206" type="line"/>
      <point x="2460" y="1456" type="line"/>
    </contour>
    <contour>
      <point x="1491" y="576" type="line"/>
      <point x="1165" y="576" type="line"/>
      <point x="1491" y="1154" type="line"/>
    </contour>
    <contour>
      <point x="1826" y="1456" type="move" name="top"/>
    </contour>
  </outline>
</glyph>
<glyph name="Eth" format="1">
  <advance width="1464.600"/>
  <unicode hex="00D0"/>
  <outline>
    <contour>
      <point x="22" y="804" type="line"/>
      <point x="22" y="632" type="line"/>
      <point x="663" y="632" type="line"/>
      <point x="663" y="804" type="line"/>
    </contour>
    <component base="D"/>
  </outline>
</glyph>
<glyph name="Oslash" format="1">
  <advance width="1596"/>
  <unicode hex="00D8"/>
  <outline>
    <contour>
      <point x="709" y="-174" type="line"/>
      <point x="853" y="-227" type="line"/>
      <point x="1596" y="1707" type="line"/>
      <point x="1446" y="1765" type="line"/>
    </contour>
    <component base="O" xOffset="388"/>
  </outline>
</glyph>
<glyph name="Thorn" format="1">
  <advance width="1338"/>
  <unicode hex="00DE"/>
  <outline>
    <contour>
      <point x="185" y="1423" type="line"/>
      <point x="185" y="0" type="line"/>
      <point x="469" y="0" type="line"/>
      <point x="469" y="477" type="line"/>
      <point x="401" y="398" type="line"/>
      <point x="727" y="398" type="line" smooth="yes"/>
      <point x="1125" y="398"/>
      <point x="1263" y="564"/>
      <point x="1263" y="818" type="curve" smooth="yes"/>
      <point x="1263" y="1113"/>
      <point x="1035" y="1193"/>
      <point x="727" y="1193" type="curve" smooth="yes"/>
      <point x="469" y="1193" type="line"/>
      <point x="469" y="1423" type="line"/>
    </contour>
    <contour>
      <point x="404" y="985" type="line"/>
      <point x="728" y="985" type="line" smooth="yes"/>
      <point x="899" y="985"/>
      <point x="979" y="940"/>
      <point x="979" y="810" type="curve" smooth="yes"/>
      <point x="979" y="680"/>
      <point x="926" y="614"/>
      <point x="703" y="614" type="curve" smooth="yes"/>
      <point x="404" y="614" type="line"/>
      <point x="469" y="544" type="line"/>
      <point x="469" y="1049" type="line"/>
    </contour>
  </outline>
</glyph>
<glyph name="germandbls" format="1">
  <advance width="1217"/>
  <unicode hex="00DF"/>
  <outline>
    <contour>
      <point x="794" y="-20" type="curve" smooth="yes"/>
      <point x="1025" y="-20"/>
      <point x="1168" y="106"/>
      <point x="1168" y="330" type="curve" smooth="yes"/>
      <point x="1168" y="653"/>
      <point x="828" y="657"/>
      <point x="828" y="753" type="curve" smooth="yes"/>
      <point x="828" y="825"/>
      <point x="1000" y="853"/>
      <point x="1000" y="1116" type="curve" smooth="yes"/>
      <point x="1000" y="1366"/>
      <point x="781" y="1463"/>
      <point x="545" y="1463" type="curve" smooth="yes"/>
      <point x="241" y="1463"/>
      <point x="102" y="1283"/>
      <point x="102" y="987" type="curve" smooth="yes"/>
      <point x="102" y="-1" type="line"/>
      <point x="390" y="-1" type="line"/>
      <point x="390" y="981" type="line" smooth="yes"/>
      <point x="390" y="1139"/>
      <point x="400" y="1244"/>
      <point x="560" y="1244" type="curve" smooth="yes"/>
      <point x="663" y="1244"/>
      <point x="740" y="1188"/>
      <point x="740" y="1104" type="curve" smooth="yes"/>
      <point x="740" y="943"/>
      <point x="542" y="895"/>
      <point x="542" y="721" type="curve" smooth="yes"/>
      <point x="542" y="529"/>
      <point x="872" y="521"/>
      <point x="872" y="339" type="curve" smooth="yes"/>
      <point x="872" y="228"/>
      <point x="804" y="211"/>
      <point x="730" y="211" type="curve" smooth="yes"/>
      <point x="655" y="211"/>
      <point x="574" y="237"/>
      <point x="534" y="256" type="curve"/>
      <point x="467" y="50" type="line"/>
      <point x="598" y="-1"/>
      <point x="701" y="-20"/>
    </contour>
  </outline>
</glyph>
<glyph name="ae" format="1">
  <advance width="1527"/>
  <unicode hex="00E6"/>
  <outline>
    <contour>
      <point x="346" y="-20" type="curve"/>
      <point x="533" y="-20"/>
      <point x="711" y="82"/>
      <point x="800" y="78" type="curve"/>
      <point x="881" y="22"/>
      <point x="1049" y="-16"/>
      <point x="1216" y="-16" type="curve" smooth="yes"/>
      <point x="1383" y="-16"/>
      <point x="1448" y="34"/>
      <point x="1464" y="46" type="curve"/>
      <point x="1449" y="252" type="line"/>
      <point x="1409" y="234"/>
      <point x="1307" y="209"/>
      <point x="1201" y="209" type="curve" smooth="yes"/>
      <point x="1035" y="211"/>
      <point x="900" y="282"/>
      <point x="898" y="473" type="curve"/>
      <point x="1615" y="503"/>
      <point x="1524" y="776"/>
      <point x="1535" y="768" type="curve" smooth="yes"/>
      <point x="1540" y="924"/>
      <point x="1500" y="1100"/>
      <point x="1152" y="1100" type="curve" smooth="yes"/>
      <point x="995" y="1100"/>
      <point x="823" y="999"/>
      <point x="787" y="880" type="curve"/>
      <point x="726" y="1015"/>
      <point x="560" y="1100"/>
      <point x="409" y="1100" type="curve" smooth="yes"/>
      <point x="313" y="1100"/>
      <point x="147" y="1083"/>
      <point x="89" y="1087" type="curve"/>
      <point x="107" y="865" type="line"/>
      <point x="128" y="846"/>
      <point x="253" y="869"/>
      <point x="350" y="869" type="curve" smooth="yes"/>
      <point x="473" y="869"/>
      <point x="617" y="835"/>
      <point x="617" y="710" type="curve" smooth="yes"/>
      <point x="617" y="643" type="line"/>
      <point x="715" y="632"/>
      <point x="579" y="628"/>
      <point x="637" y="628" type="curve" smooth="yes"/>
      <point x="307" y="628"/>
      <point x="6" y="650"/>
      <point x="6" y="350" type="curve" smooth="yes"/>
      <point x="6" y="138"/>
      <point x="147" y="-30"/>
    </contour>
    <contour>
      <point x="355" y="192" type="curve" smooth="yes"/>
      <point x="254" y="192"/>
      <point x="267" y="256"/>
      <point x="267" y="334" type="curve" smooth="yes"/>
      <point x="267" y="436"/>
      <point x="372" y="435"/>
      <point x="604" y="435" type="curve" smooth="yes"/>
      <point x="554" y="435"/>
      <point x="719" y="441"/>
      <point x="627" y="452" type="curve"/>
      <point x="633" y="296"/>
      <point x="680" y="277"/>
      <point x="718" y="182" type="curve" smooth="yes"/>
      <point x="544" y="210"/>
      <point x="388" y="192"/>
    </contour>
    <contour>
      <point x="900" y="651" type="curve"/>
      <point x="931" y="898"/>
      <point x="1099" y="909"/>
      <point x="1185" y="909" type="curve" smooth="yes"/>
      <point x="1299" y="909"/>
      <point x="1345" y="904"/>
      <point x="1338" y="782" type="curve" smooth="yes"/>
      <point x="1329" y="670"/>
      <point x="1072" y="704"/>
    </contour>
    <contour>
      <point x="741" y="1079" type="move" name="top"/>
    </contour>
  </outline>
</glyph>
<glyph name="oslash" format="1">
  <advance width="1158"/>
  <unicode hex="00F8"/>
  <outline>
    <contour>
      <point x="219" y="-103" type="line"/>
      <point x="291" y="-148" type="line"/>
      <point x="1007" y="1165" type="line"/>
      <point x="929" y="1211" type="line"/>
    </contour>
    <component base="o"/>
  </outline>
</glyph>
<glyph name="thorn" format="1">
  <advance width="1101"/>
  <unicode hex="00FE"/>
  <outline>
    <contour>
      <point x="219" y="602" type="line"/>
      <point x="219" y="-521" type="line"/>
      <point x="502" y="-521" type="line"/>
      <point x="502" y="602" type="line"/>
    </contour>
    <component base="b" xOffset="71"/>
  </outline>
</glyph>
<glyph name="Hbar" format="1">
  <advance width="1369"/>
  <unicode hex="0126"/>
  <outline>
    <contour>
      <point x="988" y="1482" type="line"/>
      <point x="988" y="1366" type="line"/>
      <point x="398" y="1366" type="line"/>
      <point x="398" y="1482" type="line"/>
      <point x="87" y="1482" type="line"/>
      <point x="87" y="1366" type="line"/>
      <point x="9" y="1366" type="line"/>
      <point x="9" y="1199" type="line"/>
      <point x="87" y="1199" type="line"/>
      <point x="87" y="0" type="line"/>
      <point x="398" y="0" type="line"/>
      <point x="398" y="653" type="line"/>
      <point x="988" y="653" type="line"/>
      <point x="988" y="0" type="line"/>
      <point x="1301" y="0" type="line"/>
      <point x="1301" y="1199" type="line"/>
      <point x="1380" y="1199" type="line"/>
      <point x="1380" y="1366" type="line"/>
      <point x="1301" y="1366" type="line"/>
      <point x="1301" y="1482" type="line"/>
    </contour>
    <contour>
      <point x="988" y="884" type="line"/>
      <point x="398" y="884" type="line"/>
      <point x="398" y="1199" type="line"/>
      <point x="988" y="1199" type="line"/>
    </contour>
  </outline>
</glyph>
<glyph name="dotlessi" format="1">
  <advance width="507.700"/>
  <unicode hex="0131"/>
  <outline>
    <contour>
      <point x="145" y="1082" type="line"/>
      <point x="145" y="0" type="line"/>
      <point x="396" y="0" type="line"/>
      <point x="396" y="1082" type="line"/>
    </contour>
    <contour>
      <point x="272" y="1082" type="move" name="top"/>
    </contour>
  </outline>
</glyph>
<glyph name="kgreenlandic" format="1">
  <advance width="1167"/>
  <unicode hex="0138"/>
  <outline>
    <contour>
      <point x="805" y="1066" type="line"/>
      <point x="358" y="546" type="line"/>
      <point x="401" y="546" type="line"/>
      <point x="408" y="812" type="line"/>
      <point x="408" y="1066" type="line"/>
      <point x="154" y="1066" type="line"/>
      <point x="154" y="0" type="line"/>
      <point x="408" y="0" type="line"/>
      <point x="408" y="440" type="line"/>
      <point x="348" y="313" type="line"/>
      <point x="546" y="500" type="line"/>
      <point x="471" y="500" type="line"/>
      <point x="848" y="0" type="line"/>
      <point x="1147" y="0" type="line"/>
      <point x="661" y="641" type="line"/>
      <point x="661" y="527" type="line"/>
      <point x="1124" y="1066" type="line"/>
    </contour>
  </outline>
</glyph>
<glyph name="Eng" format="1">
  <advance width="1263.300"/>
  <unicode hex="014A"/>
  <outline>
    <contour>
      <point x="671" y="1437"/>
      <point x="491" y="1373"/>
      <point x="380" y="1253" type="curve"/>
      <point x="358" y="1415" type="line"/>
      <point x="109" y="1415" type="line"/>
      <point x="109" y="0" type="line"/>
      <point x="388" y="0" type="line"/>
      <point x="388" y="1018" type="line"/>
      <point x="472" y="1160"/>
      <point x="634" y="1230"/>
      <point x="763" y="1230" type="curve" smooth="yes"/>
      <point x="926" y="1230"/>
      <point x="990" y="1147"/>
      <point x="990" y="917" type="curve" smooth="yes"/>
      <point x="990" y="149" type="line" smooth="yes"/>
      <point x="990" y="-40"/>
      <point x="963" y="-97"/>
      <point x="778" y="-97" type="curve" smooth="yes"/>
      <point x="771" y="-97"/>
      <point x="715" y="-96"/>
      <point x="657" y="-93" type="curve"/>
      <point x="678" y="-314" type="line"/>
      <point x="730" y="-319"/>
      <point x="773" y="-319"/>
      <point x="783" y="-319" type="curve" smooth="yes"/>
      <point x="1141" y="-319"/>
      <point x="1269" y="-153"/>
      <point x="1269" y="152" type="curve" smooth="yes"/>
      <point x="1269" y="928" type="line" smooth="yes"/>
      <point x="1269" y="1246"/>
      <point x="1119" y="1437"/>
      <point x="823" y="1437" type="curve" smooth="yes"/>
    </contour>
  </outline>
</glyph>
<glyph name="eng" format="1">
  <advance width="1058.500"/>
  <unicode hex="014B"/>
  <outline>
    <contour>
      <point x="555" y="1091"/>
      <point x="449" y="1027"/>
      <point x="366" y="941" type="curve"/>
      <point x="342" y="1066" type="line"/>
      <point x="134" y="1066" type="line"/>
      <point x="134" y="0" type="line"/>
      <point x="388" y="0" type="line"/>
      <point x="388" y="531" type="line" smooth="yes"/>
      <point x="388" y="615"/>
      <point x="391" y="688"/>
      <point x="404" y="746" type="curve"/>
      <point x="441" y="833"/>
      <point x="526" y="896"/>
      <point x="641" y="896" type="curve" smooth="yes"/>
      <point x="779" y="896"/>
      <point x="811" y="805"/>
      <point x="812" y="646" type="curve"/>
      <point x="812" y="64" type="line" smooth="yes"/>
      <point x="812" y="-113"/>
      <point x="796" y="-146"/>
      <point x="649" y="-146" type="curve" smooth="yes"/>
      <point x="590" y="-146" type="line"/>
      <point x="614" y="-340" type="line"/>
      <point x="680" y="-340" type="line" smooth="yes"/>
      <point x="1005" y="-340"/>
      <point x="1065" y="-185"/>
      <point x="1066" y="114" type="curve"/>
      <point x="1066" y="668" type="line" smooth="yes"/>
      <point x="1066" y="936"/>
      <point x="950" y="1091"/>
      <point x="703" y="1091" type="curve" smooth="yes"/>
    </contour>
  </outline>
</glyph>
<glyph name="oe" format="1">
  <advance width="1980"/>
  <unicode hex="0153"/>
  <outline>
    <contour>
      <point x="302" y="1091"/>
      <point x="102" y="881"/>
      <point x="102" y="537" type="curve" smooth="yes"/>
      <point x="102" y="201"/>
      <point x="314" y="-19"/>
      <point x="623" y="-19" type="curve" smooth="yes"/>
      <point x="875" y="-19"/>
      <point x="969" y="110"/>
      <point x="1023" y="184" type="curve"/>
      <point x="1080" y="103"/>
      <point x="1192" y="-20"/>
      <point x="1450" y="-20" type="curve" smooth="yes"/>
      <point x="1613" y="-20"/>
      <point x="1745" y="10"/>
      <point x="1846" y="73" type="curve"/>
      <point x="1809" y="250" type="line"/>
      <point x="1757" y="226"/>
      <point x="1638" y="171"/>
      <point x="1474" y="171" type="curve" smooth="yes"/>
      <point x="1300" y="171"/>
      <point x="1165" y="265"/>
      <point x="1149" y="474" type="curve"/>
      <point x="1867" y="474" type="line"/>
      <point x="1867" y="474"/>
      <point x="1875" y="568"/>
      <point x="1875" y="585" type="curve" smooth="yes"/>
      <point x="1875" y="881"/>
      <point x="1703" y="1091"/>
      <point x="1413" y="1090" type="curve" smooth="yes"/>
      <point x="1174" y="1089"/>
      <point x="1058" y="950"/>
      <point x="1021" y="857" type="curve"/>
      <point x="978" y="954"/>
      <point x="871" y="1091"/>
      <point x="623" y="1091" type="curve" smooth="yes"/>
    </contour>
    <contour>
      <point x="792" y="896"/>
      <point x="890" y="768"/>
      <point x="890" y="536" type="curve" smooth="yes"/>
      <point x="890" y="301"/>
      <point x="791" y="176"/>
      <point x="623" y="176" type="curve" smooth="yes"/>
      <point x="455" y="176"/>
      <point x="356" y="303"/>
      <point x="356" y="536" type="curve" smooth="yes"/>
      <point x="356" y="768"/>
      <point x="458" y="896"/>
      <point x="623" y="896" type="curve" smooth="yes"/>
    </contour>
    <contour>
      <point x="1538" y="905"/>
      <point x="1622" y="818"/>
      <point x="1636" y="638" type="curve"/>
      <point x="1155" y="638" type="line"/>
      <point x="1174" y="820"/>
      <point x="1305" y="905"/>
      <point x="1415" y="905" type="curve" smooth="yes"/>
    </contour>
    <contour>
      <point x="623" y="0" type="move" name="bot"/>
    </contour>
    <contour>
      <point x="1385" y="1066" type="move" name="top"/>
    </contour>
    <contour>
      <point x="0" y="0" type="move" name="ogonek"/>
    </contour>
  </outline>
</glyph>
<glyph name="florin" format="1">
  <advance width="1167"/>
  <unicode hex="0192"/>
  <outline>
    <contour>
      <point x="732" y="1651"/>
      <point x="620" y="1484"/>
      <point x="577" y="1261" type="curve" smooth="yes"/>
      <point x="539" y="1066" type="line"/>
      <point x="330" y="1066" type="line"/>
      <point x="308" y="958" type="line"/>
      <point x="521" y="958" type="line"/>
      <point x="354" y="115" type="line" smooth="yes"/>
      <point x="300" y="-158"/>
      <point x="292" y="-237"/>
      <point x="17" y="-182" type="curve"/>
      <point x="-15" y="-311" type="line"/>
      <point x="296" y="-424"/>
      <point x="495" y="-296"/>
      <point x="576" y="114" type="curve" smooth="yes"/>
      <point x="743" y="958" type="line"/>
      <point x="1034" y="958" type="line"/>
      <point x="1056" y="1066" type="line"/>
      <point x="766" y="1066" type="line"/>
      <point x="808" y="1289" type="line" smooth="yes"/>
      <point x="831" y="1413"/>
      <point x="888" y="1484"/>
      <point x="975" y="1484" type="curve" smooth="yes"/>
      <point x="1094" y="1484"/>
      <point x="1114" y="1380"/>
      <point x="1114" y="1290" type="curve"/>
      <point x="1274" y="1290" type="line"/>
      <point x="1274" y="1530"/>
      <point x="1146" y="1651"/>
      <point x="966" y="1651" type="curve" smooth="yes"/>
    </contour>
  </outline>
</glyph>
<glyph name="circumflex" format="1">
  <advance width="693.700"/>
  <unicode hex="02C6"/>
  <outline>
    <contour>
      <point x="6" y="1193" type="line"/>
      <point x="185" y="1193" type="line"/>
      <point x="335" y="1407" type="line"/>
      <point x="499" y="1193" type="line"/>
      <point x="682" y="1193" type="line"/>
      <point x="446" y="1578" type="line"/>
      <point x="242" y="1578" type="line"/>
    </contour>
    <contour>
      <point x="344" y="1066" type="move" name="_top"/>
    </contour>
  </outline>
</glyph>
<glyph name="caron" format="1">
  <advance width="691.900"/>
  <unicode hex="02C7"/>
  <outline>
    <contour>
      <point x="245" y="1193" type="line"/>
      <point x="442" y="1193" type="line"/>
      <point x="691" y="1549" type="line"/>
      <point x="490" y="1549" type="line"/>
      <point x="333" y="1356" type="line"/>
      <point x="195" y="1549" type="line"/>
      <point x="-3" y="1549" type="line"/>
    </contour>
    <contour>
      <point x="346" y="1066" type="move" name="_top"/>
    </contour>
  </outline>
</glyph>
<glyph name="uni02C9" format="1">
  <advance width="600"/>
  <unicode hex="02C9"/>
  <outline>
    <contour>
      <point x="-27" y="1256" type="line"/>
      <point x="641" y="1256" type="line"/>
      <point x="641" y="1416" type="line"/>
      <point x="-27" y="1416" type="line"/>
    </contour>
    <contour>
      <point x="309" y="1066" type="move" name="_top"/>
    </contour>
  </outline>
</glyph>
<glyph name="breve" format="1">
  <advance width="639.200"/>
  <unicode hex="02D8"/>
  <outline>
    <contour>
      <point x="319" y="1213" type="curve" smooth="yes"/>
      <point x="475" y="1213"/>
      <point x="595" y="1293"/>
      <point x="595" y="1465" type="curve"/>
      <point x="429" y="1465" type="line"/>
      <point x="429" y="1397"/>
      <point x="395" y="1369"/>
      <point x="319" y="1369" type="curve" smooth="yes"/>
      <point x="242" y="1369"/>
      <point x="210" y="1397"/>
      <point x="210" y="1465" type="curve"/>
      <point x="44" y="1465" type="line"/>
      <point x="44" y="1293"/>
      <point x="164" y="1213"/>
    </contour>
    <contour>
      <point x="327" y="1066" type="move" name="_top"/>
    </contour>
  </outline>
</glyph>
<glyph name="dotaccent" format="1">
  <advance width="655"/>
  <unicode hex="02D9"/>
  <outline>
    <contour>
      <point x="543" y="1484" type="curve" smooth="yes"/>
      <point x="543" y="1618"/>
      <point x="474" y="1694"/>
      <point x="330" y="1694" type="curve" smooth="yes"/>
      <point x="183" y="1694"/>
      <point x="116" y="1618"/>
      <point x="116" y="1484" type="curve" smooth="yes"/>
      <point x="116" y="1345"/>
      <point x="183" y="1265"/>
      <point x="330" y="1265" type="curve" smooth="yes"/>
      <point x="474" y="1265"/>
      <point x="543" y="1345"/>
    </contour>
    <contour>
      <point x="330" y="1082" type="move" name="_top"/>
    </contour>
  </outline>
</glyph>
<glyph name="ring" format="1">
  <advance width="585"/>
  <unicode hex="02DA"/>
  <outline>
    <contour>
      <point x="293" y="1261" type="curve" smooth="yes"/>
      <point x="233" y="1261"/>
      <point x="203" y="1306"/>
      <point x="203" y="1361" type="curve" smooth="yes"/>
      <point x="203" y="1412"/>
      <point x="237" y="1460"/>
      <point x="293" y="1460" type="curve" smooth="yes"/>
      <point x="350" y="1460"/>
      <point x="384" y="1413"/>
      <point x="384" y="1361" type="curve" smooth="yes"/>
      <point x="384" y="1307"/>
      <point x="350" y="1261"/>
    </contour>
    <contour>
      <point x="293" y="1160" type="curve" smooth="yes"/>
      <point x="423" y="1160"/>
      <point x="504" y="1255"/>
      <point x="504" y="1361" type="curve" smooth="yes"/>
      <point x="504" y="1467"/>
      <point x="426" y="1562"/>
      <point x="293" y="1562" type="curve" smooth="yes"/>
      <point x="161" y="1562"/>
      <point x="81" y="1468"/>
      <point x="81" y="1361" type="curve" smooth="yes"/>
      <point x="81" y="1255"/>
      <point x="162" y="1160"/>
    </contour>
    <contour>
      <point x="293" y="1066" type="move" name="_top"/>
    </contour>
  </outline>
</glyph>
<glyph name="uni0307" format="1">
  <advance width="655"/>
  <unicode hex="0307"/>
  <outline>
    <contour>
      <point x="168" y="1234" type="curve" smooth="yes"/>
      <point x="94" y="1234"/>
      <point x="457" y="1191"/>
      <point x="457" y="1116" type="curve" smooth="yes"/>
      <point x="457" y="1043"/>
      <point x="486" y="1453"/>
      <point x="561" y="1453" type="curve" smooth="yes"/>
      <point x="638" y="1453"/>
      <point x="274" y="1495"/>
      <point x="274" y="1567" type="curve" smooth="yes"/>
      <point x="274" y="1642"/>
      <point x="245" y="1234"/>
    </contour>
  </outline>
</glyph>
<glyph name="breveinvertedcomb" format="1">
  <advance width="633.600"/>
  <unicode hex="0311"/>
  <outline>
    <contour>
      <point x="60" y="1191" type="curve"/>
      <point x="226" y="1191" type="line"/>
      <point x="226" y="1257"/>
      <point x="277" y="1288"/>
      <point x="334" y="1288" type="curve" smooth="yes"/>
      <point x="391" y="1288"/>
      <point x="444" y="1258"/>
      <point x="444" y="1191" type="curve"/>
      <point x="611" y="1191" type="line"/>
      <point x="611" y="1351"/>
      <point x="473" y="1425"/>
      <point x="337" y="1425" type="curve" smooth="yes"/>
      <point x="200" y="1425"/>
      <point x="60" y="1350"/>
    </contour>
    <contour>
      <point x="345" y="1066" type="move" name="_top"/>
    </contour>
  </outline>
</glyph>
<glyph name="commaaccent" format="1">
  <advance width="297"/>
  <unicode hex="0326"/>
  <outline>
    <contour>
      <point x="41" y="-497" type="line"/>
      <point x="227" y="-497" type="line"/>
      <point x="355" y="-86" type="line"/>
      <point x="102" y="-86" type="line"/>
    </contour>
    <contour>
      <point x="177" y="0" type="move" name="_bot"/>
    </contour>
  </outline>
</glyph>
<glyph name="pi" format="1">
  <advance width="1447"/>
  <unicode hex="03C0"/>
  <outline>
    <contour>
      <point x="1142" y="-13" type="curve" smooth="yes"/>
      <point x="1220" y="-13"/>
      <point x="1286" y="11"/>
      <point x="1320" y="44" type="curve"/>
      <point x="1320" y="173" type="line"/>
      <point x="1292" y="163"/>
      <point x="1253" y="152"/>
      <point x="1212" y="152" type="curve" smooth="yes"/>
      <point x="1148" y="152"/>
      <point x="1099" y="190"/>
      <point x="1099" y="302" type="curve" smooth="yes"/>
      <point x="1099" y="411"/>
      <point x="1106" y="681"/>
      <point x="1123" y="880" type="curve"/>
      <point x="1361" y="880" type="line"/>
      <point x="1361" y="1066" type="line"/>
      <point x="466" y="1066" type="line" smooth="yes"/>
      <point x="227" y="1066"/>
      <point x="153" y="966"/>
      <point x="153" y="748" type="curve"/>
      <point x="249" y="748" type="line"/>
      <point x="261" y="825"/>
      <point x="301" y="880"/>
      <point x="381" y="880" type="curve" smooth="yes"/>
      <point x="478" y="880" type="line"/>
      <point x="414" y="391" type="line" smooth="yes"/>
      <point x="385" y="173"/>
      <point x="253" y="112"/>
      <point x="165" y="112" type="curve"/>
      <point x="165" y="4" type="line"/>
      <point x="513" y="4"/>
      <point x="584" y="106"/>
      <point x="594" y="326" type="curve" smooth="yes"/>
      <point x="620" y="880" type="line"/>
      <point x="970" y="880" type="line"/>
      <point x="934" y="670"/>
      <point x="900" y="375"/>
      <point x="900" y="234" type="curve" smooth="yes"/>
      <point x="900" y="53"/>
      <point x="991" y="-13"/>
    </contour>
  </outline>
</glyph>
<glyph name="quoteleft" format="1">
  <advance width="831"/>
  <unicode hex="2018"/>
  <outline>
    <contour>
      <point x="409" y="970" type="line"/>
      <point x="449" y="1466" type="line"/>
      <point x="252" y="1466" type="line"/>
      <point x="190" y="970" type="line"/>
    </contour>
  </outline>
</glyph>
<glyph name="quoteright" format="1">
  <advance width="393.500"/>
  <unicode hex="2019"/>
  <outline>
    <contour>
      <point x="60" y="1026" type="line"/>
      <point x="226" y="1026" type="line"/>
      <point x="376" y="1423" type="line"/>
      <point x="162" y="1423" type="line"/>
    </contour>
  </outline>
</glyph>
<glyph name="quotedblleft" format="1">
  <advance width="665.200"/>
  <unicode hex="201C"/>
  <outline>
    <contour>
      <point x="219" y="963" type="line"/>
      <point x="369" y="1136" type="line"/>
      <point x="261" y="1461" type="line"/>
      <point x="58" y="1290" type="line"/>
    </contour>
    <contour>
      <point x="501" y="963" type="line"/>
      <point x="654" y="1136" type="line"/>
      <point x="543" y="1462" type="line"/>
      <point x="347" y="1290" type="line"/>
    </contour>
  </outline>
</glyph>
<glyph name="quotedblright" format="1">
  <advance width="818.400"/>
  <unicode hex="201D"/>
  <outline>
    <contour>
      <point x="93" y="1039" type="line"/>
      <point x="260" y="1039" type="line"/>
      <point x="403" y="1435" type="line"/>
      <point x="197" y="1435" type="line"/>
    </contour>
    <contour>
      <point x="421" y="1040" type="line"/>
      <point x="579" y="1040" type="line"/>
      <point x="731" y="1435" type="line"/>
      <point x="516" y="1435" type="line"/>
    </contour>
  </outline>
</glyph>
<glyph name="dagger" format="1">
  <advance width="1170"/>
  <unicode hex="2020"/>
  <outline>
    <contour>
      <point x="407" y="1492" type="line"/>
      <point x="407" y="1159" type="line"/>
      <point x="162" y="1159" type="line"/>
      <point x="162" y="941" type="line"/>
      <point x="407" y="941" type="line"/>
      <point x="407" y="-130" type="line"/>
      <point x="749" y="-130" type="line"/>
      <point x="749" y="941" type="line"/>
      <point x="1023" y="941" type="line"/>
      <point x="1023" y="1159" type="line"/>
      <point x="758" y="1159" type="line"/>
      <point x="758" y="1492" type="line"/>
    </contour>
  </outline>
</glyph>
<glyph name="daggerdbl" format="1">
  <advance width="1142"/>
  <unicode hex="2021"/>
  <outline>
    <contour>
      <point x="435" y="1509" type="line"/>
      <point x="435" y="1161" type="line"/>
      <point x="171" y="1161" type="line"/>
      <point x="171" y="950" type="line"/>
      <point x="435" y="950" type="line"/>
      <point x="435" y="553" type="line"/>
      <point x="169" y="553" type="line"/>
      <point x="169" y="358" type="line"/>
      <point x="435" y="358" type="line"/>
      <point x="435" y="-43" type="line"/>
      <point x="661" y="-43" type="line"/>
      <point x="661" y="358" type="line"/>
      <point x="922" y="358" type="line"/>
      <point x="922" y="553" type="line"/>
      <point x="661" y="553" type="line"/>
      <point x="659" y="950" type="line"/>
      <point x="925" y="950" type="line"/>
      <point x="925" y="1161" type="line"/>
      <point x="659" y="1161" type="line"/>
      <point x="659" y="1509" type="line"/>
    </contour>
  </outline>
</glyph>
<glyph name="bullet" format="1">
  <advance width="865.300"/>
  <unicode hex="2022"/>
  <outline>
    <contour>
      <point x="459" y="350" type="curve" smooth="yes"/>
      <point x="649" y="350"/>
      <point x="798" y="492"/>
      <point x="798" y="682" type="curve" smooth="yes"/>
      <point x="798" y="872"/>
      <point x="652" y="1007"/>
      <point x="464" y="1007" type="curve" smooth="yes"/>
      <point x="275" y="1007"/>
      <point x="125" y="866"/>
      <point x="125" y="676" type="curve" smooth="yes"/>
      <point x="125" y="487"/>
      <point x="270" y="350"/>
    </contour>
  </outline>
</glyph>
<glyph name="guilsinglright" format="1">
  <advance width="524.800"/>
  <unicode hex="203A"/>
  <outline>
    <contour>
      <point x="50" y="161" type="line"/>
      <point x="251" y="161" type="line"/>
      <point x="521" y="553" type="line"/>
      <point x="256" y="948" type="line"/>
      <point x="56" y="948" type="line"/>
      <point x="306" y="554" type="line"/>
    </contour>
  </outline>
</glyph>
<glyph name="fraction" format="1">
  <advance width="1048.200"/>
  <unicode hex="2044"/>
  <outline>
    <contour>
      <point x="40" y="0" type="line"/>
      <point x="240" y="0" type="line"/>
      <point x="1073" y="1428" type="line"/>
      <point x="877" y="1428" type="line"/>
    </contour>
  </outline>
</glyph>
<glyph name="Euro" format="1">
  <advance width="1243.600"/>
  <unicode hex="20AC"/>
  <outline>
    <contour>
      <point x="491" y="1441"/>
      <point x="178" y="1260"/>
      <point x="118" y="845" type="curve"/>
      <point x="201" y="897" type="line"/>
      <point x="0" y="897" type="line"/>
      <point x="-1" y="760" type="line"/>
      <point x="193" y="760" type="line"/>
      <point x="119" y="811" type="line"/>
      <point x="117" y="796"/>
      <point x="117" y="732"/>
      <point x="117" y="716" type="curve" smooth="yes"/>
      <point x="117" y="688"/>
      <point x="119" y="617"/>
      <point x="121" y="590" type="curve"/>
      <point x="191" y="632" type="line"/>
      <point x="-1" y="632" type="line"/>
      <point x="-2" y="495" type="line"/>
      <point x="202" y="495" type="line"/>
      <point x="127" y="537" type="line"/>
      <point x="200" y="158"/>
      <point x="488" y="-19"/>
      <point x="814" y="-19" type="curve" smooth="yes"/>
      <point x="945" y="-19"/>
      <point x="1072" y="11"/>
      <point x="1187" y="65" type="curve"/>
      <point x="1134" y="277" type="line"/>
      <point x="1051" y="238"/>
      <point x="946" y="210"/>
      <point x="842" y="210" type="curve" smooth="yes"/>
      <point x="661" y="210"/>
      <point x="482" y="291"/>
      <point x="419" y="537" type="curve"/>
      <point x="342" y="495" type="line"/>
      <point x="843" y="495" type="line"/>
      <point x="844" y="632" type="line"/>
      <point x="330" y="632" type="line"/>
      <point x="406" y="590" type="line"/>
      <point x="403" y="616"/>
      <point x="402" y="685"/>
      <point x="402" y="713" type="curve" smooth="yes"/>
      <point x="402" y="729"/>
      <point x="402" y="795"/>
      <point x="404" y="811" type="curve"/>
      <point x="329" y="760" type="line"/>
      <point x="844" y="760" type="line"/>
      <point x="845" y="897" type="line"/>
      <point x="341" y="897" type="line"/>
      <point x="408" y="845" type="line"/>
      <point x="459" y="1114"/>
      <point x="643" y="1213"/>
      <point x="826" y="1213" type="curve" smooth="yes"/>
      <point x="933" y="1213"/>
      <point x="1046" y="1183"/>
      <point x="1135" y="1133" type="curve"/>
      <point x="1216" y="1328" type="line"/>
      <point x="1105" y="1399"/>
      <point x="959" y="1441"/>
      <point x="808" y="1441" type="curve" smooth="yes"/>
    </contour>
  </outline>
</glyph>
<glyph name="trademark" format="1">
  <advance width="1628.700"/>
  <unicode hex="2122"/>
  <outline>
    <contour>
      <point x="1379" y="1418" type="line"/>
      <point x="1164" y="887" type="line"/>
      <point x="958" y="1418" type="line"/>
      <point x="751" y="1418" type="line"/>
      <point x="751" y="619" type="line"/>
      <point x="912" y="619" type="line"/>
      <point x="912" y="1125" type="line"/>
      <point x="1104" y="643" type="line"/>
      <point x="1210" y="643" type="line"/>
      <point x="1413" y="1132" type="line"/>
      <point x="1413" y="619" type="line"/>
      <point x="1572" y="619" type="line"/>
      <point x="1572" y="1418" type="line"/>
    </contour>
    <contour>
      <point x="63" y="1418" type="line"/>
      <point x="64" y="1265" type="line"/>
      <point x="301" y="1265" type="line"/>
      <point x="301" y="619" type="line"/>
      <point x="464" y="619" type="line"/>
      <point x="464" y="1265" type="line"/>
      <point x="698" y="1265" type="line"/>
      <point x="698" y="1418" type="line"/>
    </contour>
  </outline>
</glyph>
<glyph name="estimated" format="1">
  <advance width="1216"/>
  <unicode hex="212E"/>
  <outline>
    <contour>
      <point x="329" y="1086"/>
      <point x="102" y="850"/>
      <point x="102" y="534" type="curve" smooth="yes"/>
      <point x="102" y="218"/>
      <point x="288" y="-20"/>
      <point x="665" y="-20" type="curve" smooth="yes"/>
      <point x="870" y="-20"/>
      <point x="1003" y="68"/>
      <point x="1102" y="186" type="curve"/>
      <point x="1051" y="236" type="line"/>
      <point x="954" y="132"/>
      <point x="844" y="53"/>
      <point x="665" y="53" type="curve" smooth="yes"/>
      <point x="438" y="53"/>
      <point x="318" y="241"/>
      <point x="317" y="514" type="curve"/>
      <point x="1110" y="514" type="line"/>
      <point x="1110" y="857"/>
      <point x="964" y="1086"/>
      <point x="648" y="1086" type="curve" smooth="yes"/>
    </contour>
    <contour>
      <point x="861" y="1026"/>
      <point x="999" y="826"/>
      <point x="999" y="594" type="curve"/>
      <point x="320" y="594" type="line"/>
      <point x="334" y="852"/>
      <point x="483" y="1026"/>
      <point x="654" y="1026" type="curve" smooth="yes"/>
    </contour>
  </outline>
</glyph>
<glyph name="summation" format="1">
  <advance width="1133.900"/>
  <unicode hex="2211"/>
  <outline>
    <contour>
      <point x="75" y="1415" type="line"/>
      <point x="75" y="1286" type="line"/>
      <point x="627" y="554" type="line"/>
      <point x="56" y="-195" type="line"/>
      <point x="56" y="-318" type="line"/>
      <point x="1154" y="-318" type="line"/>
      <point x="1154" y="-123" type="line"/>
      <point x="344" y="-123" type="line"/>
      <point x="873" y="561" type="line"/>
      <point x="369" y="1226" type="line"/>
      <point x="1113" y="1226" type="line"/>
      <point x="1113" y="1415" type="line"/>
    </contour>
  </outline>
</glyph>
<glyph name="radical" format="1">
  <advance width="1195"/>
  <unicode hex="221A"/>
  <outline>
    <contour>
      <point x="1055" y="1577" type="line"/>
      <point x="613" y="110" type="line"/>
      <point x="553" y="320" type="line"/>
      <point x="358" y="951" type="line"/>
      <point x="42" y="864" type="line"/>
      <point x="59" y="739" type="line"/>
      <point x="264" y="800" type="line"/>
      <point x="583" y="-168" type="line"/>
      <point x="724" y="-168" type="line"/>
      <point x="1250" y="1577" type="line"/>
    </contour>
  </outline>
</glyph>
<glyph name="integral" format="1">
  <advance width="719"/>
  <unicode hex="222B"/>
  <outline>
    <contour>
      <point x="340" y="1451"/>
      <point x="268" y="1309"/>
      <point x="268" y="1061" type="curve"/>
      <point x="268" y="41" type="line"/>
      <point x="268" y="-114"/>
      <point x="252" y="-194"/>
      <point x="147" y="-194" type="curve"/>
      <point x="112" y="-194"/>
      <point x="70" y="-187"/>
      <point x="16" y="-169" type="curve"/>
      <point x="16" y="-336" type="line"/>
      <point x="69" y="-350"/>
      <point x="120" y="-356"/>
      <point x="162" y="-356" type="curve"/>
      <point x="367" y="-356"/>
      <point x="454" y="-204"/>
      <point x="454" y="49" type="curve"/>
      <point x="454" y="1070" type="line"/>
      <point x="454" y="1218"/>
      <point x="474" y="1289"/>
      <point x="560" y="1289" type="curve"/>
      <point x="593" y="1289"/>
      <point x="629" y="1281"/>
      <point x="688" y="1262" type="curve"/>
      <point x="688" y="1428" type="line"/>
      <point x="632" y="1443"/>
      <point x="579" y="1451"/>
      <point x="536" y="1451" type="curve"/>
    </contour>
  </outline>
</glyph>
<glyph name="greaterequal" format="1">
  <advance width="1088.600"/>
  <unicode hex="2265"/>
  <outline>
    <contour>
      <point x="139" y="1045" type="line"/>
      <point x="787" y="718" type="line"/>
      <point x="138" y="407" type="line"/>
      <point x="138" y="209" type="line"/>
      <point x="1026" y="662" type="line"/>
      <point x="1026" y="776" type="line"/>
      <point x="139" y="1242" type="line"/>
    </contour>
    <contour>
      <point x="129" y="163" type="line"/>
      <point x="129" y="3" type="line"/>
      <point x="1033" y="3" type="line"/>
      <point x="1033" y="162" type="line"/>
    </contour>
  </outline>
</glyph>
<glyph name="lozenge" format="1">
  <advance width="1086.500"/>
  <unicode hex="25CA"/>
  <outline>
    <contour>
      <point x="516" y="1460" type="line"/>
      <point x="89" y="706" type="line"/>
      <point x="509" y="-44" type="line"/>
      <point x="634" y="-44" type="line"/>
      <point x="1065" y="707" type="line"/>
      <point x="644" y="1460" type="line"/>
    </contour>
    <contour>
      <point x="676" y="1067"/>
      <point x="776" y="886"/>
      <point x="871" y="707" type="curve"/>
      <point x="773" y="527"/>
      <point x="670" y="346"/>
      <point x="571" y="164" type="curve"/>
      <point x="474" y="344"/>
      <point x="378" y="528"/>
      <point x="283" y="708" type="curve"/>
      <point x="381" y="887"/>
      <point x="484" y="1068"/>
      <point x="581" y="1249" type="curve"/>
    </contour>
  </outline>
</glyph>
<glyph name="caron.alt" format="1">
  <advance width="600"/>
  <outline>
    <contour>
      <point x="239" y="894" type="line"/>
      <point x="388" y="894" type="line"/>
      <point x="423" y="1551" type="line"/>
      <point x="241" y="1551" type="line"/>
    </contour>
    <contour>
      <point x="-113" y="1082" type="move" name="_caron.alt"/>
    </contour>
  </outline>
</glyph>
<glyph name="commaturnedabovecomb" format="1">
  <advance width="600"/>
  <outline>
    <contour>
      <point x="132" y="1273" type="line"/>
      <point x="439" y="1273" type="line"/>
      <point x="507" y="1968" type="line"/>
      <point x="295" y="1968" type="line"/>
      <point x="295" y="1968"/>
      <point x="142" y="1316"/>
      <point x="142" y="1289" type="curve"/>
    </contour>
    <contour>
      <point x="288" y="1082" type="move" name="_top"/>
    </contour>
  </outline>
</glyph>
<glyph name="dotlessj" format="1">
  <advance width="639"/>
  <outline>
    <contour>
      <point x="147" y="1082" type="line"/>
      <point x="147" y="0" type="line" smooth="yes"/>
      <point x="147" y="-146"/>
      <point x="115" y="-182"/>
      <point x="-56" y="-262" type="curve" smooth="yes"/>
      <point x="-152" y="-307" type="line"/>
      <point x="-6" y="-584" type="line"/>
      <point x="86" y="-541" type="line" smooth="yes"/>
      <point x="357" y="-414"/>
      <point x="525" y="-343"/>
      <point x="525" y="-33" type="curve" smooth="yes"/>
      <point x="525" y="1082" type="line"/>
    </contour>
    <contour>
      <point x="347" y="1082" type="move" name="top"/>
    </contour>
  </outline>
</glyph>
<glyph name="middot" format="1">
  <advance width="398"/>
  <outline>
    <component base="period" xOffset="-83" yOffset="493"/>
    <contour>
      <point x="200" y="641" type="move" name="_mid"/>
    </contour>
  </outline>
</glyph>
<glyph name="slashbar" format="1">
  <advance width="600"/>
  <outline>
    <contour>
      <point x="-13" y="373" type="line"/>
      <point x="638" y="794" type="line"/>
      <point x="638" y="994" type="line"/>
      <point x="-13" y="573" type="line"/>
    </contour>
    <contour>
      <point x="299" y="698" type="move" name="_mid"/>
    </contour>
  </outline>
</glyph>
